<svg xmlns="http://www.w3.org/2000/svg" viewBox="0 0 832.878 288.701"><path d="M273.82 92.35a18.13 18.13 0 012.135-8.972 19.418 19.418 0 016.004-6.526 34.903 34.903 0 019.281-4.442 75.945 75.945 0 0111.912-2.727 135.24 135.24 0 0113.93-1.317q7.429-.34 15.345-.342 10.647 0 22.295.795 11.648.795 24.31 2.89a6.798 6.798 0 014.126 2.043 5.096 5.096 0 011.193 3.29 6.648 6.648 0 01-.55 2.637 9.306 9.306 0 01-1.468 2.368 7.077 7.077 0 01-2.142 1.726 5.475 5.475 0 01-2.567.64 82.963 82.963 0 01-9.817-.607q-5.106-.613-10.64-1.375-5.535-.766-11.406-1.521-5.868-.762-12.108-1.145a136.553 136.553 0 01-3.133 15.762q-2.029 7.81-4.166 16.009-2.136 8.19-4.26 16.359-2.128 8.166-4.074 15.65-1.95 7.482-3.597 13.813l-2.832 10.888a13.187 13.187 0 01-1.557 3.757 15.327 15.327 0 01-2.352 2.97 10.725 10.725 0 01-2.7 1.952 5.895 5.895 0 01-2.609.69 10.118 10.118 0 01-5.968-1.654q-2.344-1.647-2.346-5.32a10.14 10.14 0 01.372-2.57q1.342-5.395 2.689-10.793 1.341-5.408 2.816-11.307 1.47-5.905 3.738-12.447 2.26-6.543 5.013-14.405 2.75-7.86 5.962-17.62 3.205-9.764 6.943-21.734-3.246.256-6.578.576-3.333.32-6.479.867a53.1 53.1 0 00-5.974 1.375 26.144 26.144 0 00-5.157 2.112 11.55 11.55 0 00-3.696 3.075 6.813 6.813 0 00-1.358 4.227c0 .088-.047.551-.146 1.407a7.294 7.294 0 01-1.01 2.786 8.46 8.46 0 01-2.74 2.755 9.613 9.613 0 01-5.34 1.245 9.914 9.914 0 01-5.37-1.223 8.318 8.318 0 01-2.77-2.695 8.218 8.218 0 01-1.153-3.922z" fill="#00aeef"/><path d="M375.826 126.548a33.028 33.028 0 012.661 7.492 40.748 40.748 0 01.884 8.897 34.244 34.244 0 01-.793 7.28 37.668 37.668 0 01-2.29 7.094 34.77 34.77 0 01-3.673 6.421 26.275 26.275 0 01-4.951 5.201 23.609 23.609 0 01-6.085 3.484 19.275 19.275 0 01-7.034 1.284 17.188 17.188 0 01-9.204-2.355 19.568 19.568 0 01-6.269-6.145 27.344 27.344 0 01-3.58-8.56 41.79 41.79 0 01-1.13-9.665 42.69 42.69 0 012.019-13.914 30.28 30.28 0 015.783-10.15 26.72 26.72 0 019.201-6.791 29.206 29.206 0 0112.229-2.474 32.31 32.31 0 0110.885 1.803 41.126 41.126 0 019.513 4.834 40.693 40.693 0 018.254 7.611q3.822 4.588 7.125 8.745l-1.165 8.621a35.654 35.654 0 00-4.461-4.767q-2.816-2.571-5.963-5.69a50.158 50.158 0 00-6.208-5.289q-3.056-2.166-5.26-3.638zm-18.896 35.414a5.597 5.597 0 004.036-2.114 19.966 19.966 0 003.423-5.32 34.571 34.571 0 002.355-7.768 42.729 42.729 0 00.889-8.102 29.87 29.87 0 00-.43-5.231 16.059 16.059 0 00-1.284-4.188 7.714 7.714 0 00-2.2-2.813 5.174 5.174 0 00-3.244-1.035 6.891 6.891 0 00-4.77 2.136 20.022 20.022 0 00-3.973 5.475 33.419 33.419 0 00-2.692 7.365 38.773 38.773 0 00-.977 9.115 22.671 22.671 0 00.489 4.831 12.454 12.454 0 001.526 3.945 7.678 7.678 0 006.852 3.704zM449.837 67.535a86.52 86.52 0 0117.792 1.645 56.72 56.72 0 0113.653 4.572 37.56 37.56 0 019.908 6.973 36.668 36.668 0 016.564 8.834 38.825 38.825 0 013.642 10.145 52.138 52.138 0 011.148 10.965 90.038 90.038 0 01-1.722 16.737 76.921 76.921 0 01-4.967 16.428 73.467 73.467 0 01-8.01 13.913 57.894 57.894 0 01-10.886 11.344 50.579 50.579 0 01-13.499 7.633 44.51 44.51 0 01-15.887 2.787 39.727 39.727 0 01-5.817-.438 50.257 50.257 0 01-5.75-1.19 54.508 54.508 0 01-5.27-1.684 38.06 38.06 0 01-4.361-1.932 4.065 4.065 0 01-1.237-.6 2.313 2.313 0 01-.696-.808 3.005 3.005 0 01-.303-1.154 20.224 20.224 0 01-.06-1.748q0-10.149.513-20.776.505-10.637 2.081-21.85a106.072 106.072 0 014.544-19.795 67.723 67.723 0 017.87-15.857c.804-1.184 3.412-1.772 7.81-1.772q5.205 0 7.47 3.785a38.234 38.234 0 00-4.712 8.428 88.875 88.875 0 00-3.19 9.131 85.06 85.06 0 00-2.141 9.797q-1.652 10.266-1.593 10.386.187.124-1.408 11.724-.613 4.03-.95 7.023-.334 2.994-.488 5.253-.153 2.261-.155 4.395 0 2.257.155 3.787a5.583 5.583 0 00.735 2.44 3.201 3.201 0 001.774 1.315 10.503 10.503 0 003.22.397 28.714 28.714 0 0011.63-2.413 39.356 39.356 0 0010.163-6.473 49.986 49.986 0 008.36-9.435 55.73 55.73 0 006.308-12.426 107.317 107.317 0 004.013-13.253 54.008 54.008 0 001.409-11.94 32.654 32.654 0 00-2.333-12.67 26.575 26.575 0 00-6.518-9.464 28.324 28.324 0 00-10.073-5.924 39.023 39.023 0 00-12.92-2.045 83.805 83.805 0 00-10.189.613 56.014 56.014 0 00-9.355 1.904 32.238 32.238 0 00-7.587 3.29 14.15 14.15 0 00-4.924 4.76q-4.46 6.948-7.335 10.725-2.874 3.78-4.83 3.779-2.697 0-2.692-6.176a34.616 34.616 0 011.557-10.766 29.11 29.11 0 014.341-8.466 27.719 27.719 0 016.607-6.3 38.85 38.85 0 018.375-4.281 49.958 49.958 0 019.695-2.477 69.137 69.137 0 0110.52-.795zM547.552 126.548a33.002 33.002 0 012.661 7.492 41.116 41.116 0 01.878 8.897 33.921 33.921 0 01-.789 7.28 36.743 36.743 0 01-2.297 7.094 33.53 33.53 0 01-3.666 6.421 26.456 26.456 0 01-4.953 5.201 23.647 23.647 0 01-6.084 3.484 19.292 19.292 0 01-7.04 1.284 17.202 17.202 0 01-9.198-2.355 19.657 19.657 0 01-6.271-6.145 27.244 27.244 0 01-3.573-8.56 41.356 41.356 0 01-1.132-9.665 42.53 42.53 0 012.022-13.914 30.257 30.257 0 015.774-10.15 26.785 26.785 0 019.204-6.791 29.225 29.225 0 0112.235-2.474 32.256 32.256 0 0110.877 1.803 41.318 41.318 0 019.523 4.834 40.818 40.818 0 018.249 7.61q3.818 4.589 7.128 8.746l-1.165 8.621a36.331 36.331 0 00-4.467-4.767q-2.808-2.571-5.963-5.69a49.734 49.734 0 00-6.206-5.289q-3.064-2.166-5.256-3.638zm-18.898 35.414a5.578 5.578 0 004.035-2.114 19.757 19.757 0 003.424-5.32 34.575 34.575 0 002.357-7.768 42.98 42.98 0 00.895-8.102 29.301 29.301 0 00-.437-5.231 16.34 16.34 0 00-1.28-4.188 7.825 7.825 0 00-2.21-2.813 5.149 5.149 0 00-3.24-1.035 6.9 6.9 0 00-4.77 2.136 19.84 19.84 0 00-3.97 5.475 32.922 32.922 0 00-2.695 7.365 38.947 38.947 0 00-.97 9.115 22.484 22.484 0 00.485 4.831 12.385 12.385 0 001.523 3.945 7.687 7.687 0 006.853 3.704zM578.625 154.728q.795-.556 2.694-1.823c1.27-.85 2.761-1.847 4.478-3.006q2.584-1.735 5.554-3.81a387.27 387.27 0 005.858-4.179l.486-4.224a147.006 147.006 0 014.345-23.928 127.015 127.015 0 017.067-19.677 90.883 90.883 0 018.873-15.366 69.922 69.922 0 019.8-11.023 39.64 39.64 0 019.844-6.639 22.164 22.164 0 019.082-2.202 13.793 13.793 0 015.742 1.19 11.87 11.87 0 014.494 3.569 17.613 17.613 0 012.926 5.943 28.912 28.912 0 011.065 8.32 45.875 45.875 0 01-1.728 12.078 70.982 70.982 0 01-4.897 12.76 101.364 101.364 0 01-7.608 12.847 120.494 120.494 0 01-9.822 12.353 124.128 124.128 0 01-11.655 11.244 107.646 107.646 0 01-12.963 9.444q0 3.776-.249 9.04c-.044 1.489-.071 2.61-.093 3.377-.017.762-.034 1.29-.034 1.58v.678a2.475 2.475 0 00.216 1.021 1.58 1.58 0 00.866.746 6.713 6.713 0 001.745.43 21.971 21.971 0 002.948.155q2.709 0 7.443-2.507l20.478-5.882a5.583 5.583 0 011.004-.177 7.902 7.902 0 01.934-.055 5.689 5.689 0 012.683.594 5.522 5.522 0 011.871 1.59 7.051 7.051 0 011.126 2.307 9.54 9.54 0 01.376 2.68 7.737 7.737 0 01-.376 2.436 7.573 7.573 0 01-2.97 3.997 6.635 6.635 0 01-2.622.996q-6.07 1.98-12.395 3.556-2.766.791-5.698 1.637l-5.94 1.698a30.078 30.078 0 01-6.184 1.087 83.594 83.594 0 01-6.173.233 16.169 16.169 0 01-7.403-1.486 11.878 11.878 0 01-4.572-4.016 18 18 0 01-2.341-7.308 62.564 62.564 0 01-.662-8.502q-5.284 3.85-8.967 6.109-3.677 2.257-4.72 2.258a3.312 3.312 0 01-2-.704 7.768 7.768 0 01-1.744-1.858 10.091 10.091 0 01-1.264-2.589 9.367 9.367 0 01-.453-2.841 9.987 9.987 0 01.277-2.324 2.986 2.986 0 011.258-1.827zm34.733-21.735a237.771 237.771 0 006.52-7.155q3.405-3.871 6.748-8.11 3.328-4.245 6.431-8.669 3.09-4.43 5.572-8.828a73.637 73.637 0 004.162-8.543 32.116 32.116 0 002.181-7.868c.122-.825.204-1.62.243-2.382.045-.765.06-1.478.06-2.14a10.59 10.59 0 00-.949-5.14 2.914 2.914 0 00-2.606-1.61 7.898 7.898 0 00-4.588 2.076 31.557 31.557 0 00-5.515 5.913 75.318 75.318 0 00-5.825 9.29 98.531 98.531 0 00-5.455 12.138 122.687 122.687 0 00-4.379 14.554 112.627 112.627 0 00-2.6 16.474z" fill="#00aeef"/><path d="M692.548 160.674a54.087 54.087 0 01-5.472 4.312 57.848 57.848 0 01-7.061 4.22 54.667 54.667 0 01-7.74 3.211 24.229 24.229 0 01-7.487 1.284 14.16 14.16 0 01-5.356-.89 8.924 8.924 0 01-3.517-2.475 9.593 9.593 0 01-1.927-3.882 20.577 20.577 0 01-.58-5.043 54.629 54.629 0 01.862-8.991q1.755-10.626 2.264-11.937.836-2.617 3.334-11.575c1.54-4.87 2.507-8.042 2.866-9.51a4.941 4.941 0 011.69-2.783 10.859 10.859 0 012.848-1.822 15.566 15.566 0 013.296-1.052 16.397 16.397 0 013.103-.34q2.51 0 3.423.945a3.56 3.56 0 01.894 2.54 16.664 16.664 0 01-.618 3.801c-.425 1.643-.9 3.506-1.436 5.601q-.811 3.143-2.373 8.08a61.496 61.496 0 00-2.16 8.425 82.925 82.925 0 01-1.451 6.924 25.223 25.223 0 00-.878 6.25 12.533 12.533 0 00.607 4.37 2.41 2.41 0 002.501 1.625 10.062 10.062 0 004.892-1.534 43.033 43.033 0 005.444-3.697 118.85 118.85 0 005.383-4.497q2.634-2.322 4.649-3.975zm-27.34-64.178a10.025 10.025 0 01.612-3.207 10.16 10.16 0 011.987-3.368 11.17 11.17 0 013.667-2.65 13.441 13.441 0 015.725-1.083 15.974 15.974 0 014.036.492 9.804 9.804 0 013.301 1.515 7.233 7.233 0 012.237 2.683 8.86 8.86 0 01.822 3.95 12.411 12.411 0 01-.673 4.075 9.487 9.487 0 01-2.137 3.517 10.99 10.99 0 01-3.71 2.504 13.45 13.45 0 01-5.345.955c-3.594 0-6.228-.855-7.95-2.564a9.202 9.202 0 01-2.573-6.819z" fill="#00aeef"/><path d="M686.502 150.617q3.436-2.965 5.565-4.939a44.923 44.923 0 004.285-4.607q2.145-2.633 3.395-4.298 1.25-1.67 2.97-3.956c1.132-1.527 2.524-3.388 4.152-5.593q2.444-3.313 6.36-8.254a21.155 21.155 0 011.779-2.165 13.606 13.606 0 012.17-1.887 11.465 11.465 0 012.628-1.359 9.276 9.276 0 013.213-.525 12.492 12.492 0 014.527.65 5.637 5.637 0 012.325 1.578 3.827 3.827 0 01.855 1.95 14.743 14.743 0 01.127 1.758 6.204 6.204 0 01-1.17 3.276 35.362 35.362 0 01-2.562 3.462 128.994 128.994 0 01-2.672 3.06 6.382 6.382 0 00-1.43 2.07 19.974 19.974 0 00.276 3.494 26.463 26.463 0 00.75 3.09c.31 1.013.63 2.078.972 3.216q.489 1.693.955 3.922a22.556 22.556 0 01.122 6.123q-.34 3.892-.342 7.848a36.087 36.087 0 014.748-2.689c1.678-.8 3.45-1.636 5.284-2.503a112.45 112.45 0 005.658-2.874 47.027 47.027 0 005.847-3.804l.061 13.85a57.466 57.466 0 01-8.784 5.306 88.398 88.398 0 01-10.48 4.367 82.781 82.781 0 01-11.096 2.975 55.553 55.553 0 01-10.612 1.091 33.457 33.457 0 01-6.72-.64 18.116 18.116 0 01-5.476-2.018 11.386 11.386 0 01-3.82-3.598 11.735 11.735 0 01-1.779-5.382 12.737 12.737 0 01-1.678.248c-.546.039-1.099.06-1.618.06-.662 0-1.27-.021-1.838-.06a3.044 3.044 0 01-1.469-.464 2.77 2.77 0 01-.983-1.297 7.216 7.216 0 01-.364-2.568 5.382 5.382 0 01.735-2.752 10.746 10.746 0 011.722-2.252 17.212 17.212 0 011.949-1.731c.651-.495 1.143-.886 1.463-1.18zm7.641 7.914a2.41 2.41 0 011.618.925c.58.621 1.27 1.3 2.048 2.046a15.385 15.385 0 002.69 2.037 6.556 6.556 0 003.488.927 8.562 8.562 0 003.942-.803 6.71 6.71 0 002.48-2.13 8.468 8.468 0 001.28-3.093 18.621 18.621 0 00.365-3.682 27.509 27.509 0 00-.216-3.396 19.608 19.608 0 01.061-4.3 10.69 10.69 0 00-.121-3.954c-.26-.927-.497-1.72-.696-2.38z" fill="#00aeef"/><path d="M791.806 160.003q-5.871 3.425-10.48 5.99c-3.052 1.715-5.785 3.145-8.165 4.282a47.456 47.456 0 01-6.371 2.57 17.492 17.492 0 01-5.052.856 12.653 12.653 0 01-8.149-2.816 21.06 21.06 0 01-5.902-8.102 51.03 51.03 0 01-3.561-12.81 108.94 108.94 0 01-1.181-16.94c0-2.447.093-5.053.303-7.827q.298-4.161.85-8.26c-1.242-.18-2.186-.348-2.866-.51a75.567 75.567 0 00-2.158-.472 58.125 58.125 0 00-2.887-.514c-1.171-.177-2.872-.406-5.08-.679a5.079 5.079 0 01-2.28-.784 3.57 3.57 0 01-1.17-1.364 4.673 4.673 0 01-.437-1.631 27.235 27.235 0 01-.06-1.46c0-.646.403-1.138 1.203-1.475a12.062 12.062 0 013.07-.759 34.34 34.34 0 014.124-.287q2.245-.025 4.306.03c1.37.042 2.601.07 3.683.092a12.193 12.193 0 002.247-.091 138.4 138.4 0 014.174-15.945 90.325 90.325 0 015.681-13.723 37.813 37.813 0 016.869-9.635c2.479-2.418 5.09-3.627 7.812-3.627a8.383 8.383 0 014.803 1.466 12.753 12.753 0 013.705 3.909 20.069 20.069 0 012.358 5.712 27.63 27.63 0 01.828 6.812 24.075 24.075 0 01-.867 6.195 46.012 46.012 0 01-2.319 6.637 68.647 68.647 0 01-3.456 6.851 150.49 150.49 0 01-4.19 6.88 4.595 4.595 0 011.843-.078q1.276.125 2.966.172c1.114.03 2.334.066 3.638.096 1.303.033 2.561.072 3.793.11 1.214.039 2.357.086 3.417.125 1.06.041 1.949.082 2.634.119a1.99 1.99 0 011.767 1.363 8.242 8.242 0 01.557 3.266 5.565 5.565 0 01-1.225 3.724 3.533 3.533 0 01-2.69 1.432h-23.508q-1.78 2.452-3.605 4.801a242.586 242.586 0 01-3.341 4.254q-.248 3.79-.42 7.459-.074 1.59-.137 3.271c-.033 1.121-.078 2.231-.122 3.335-.033 1.099-.066 2.159-.088 3.18-.016 1.022-.034 1.955-.034 2.81a21.867 21.867 0 00.619 5.569 9.784 9.784 0 001.784 3.696 6.6 6.6 0 002.849 2.084 10.645 10.645 0 003.776.64 11.228 11.228 0 003.213-.61 36.35 36.35 0 004.224-1.683 62.287 62.287 0 004.842-2.54q2.534-1.466 5.019-3.208a65.75 65.75 0 004.742-3.671 44.766 44.766 0 004.102-3.948zM772.234 82.56c0-.45-.033-.944-.089-1.494a5.598 5.598 0 00-.403-1.554 2.694 2.694 0 00-2.755-1.706q-1.606 0-3.23 2.797a40.786 40.786 0 00-3.13 7.13q-1.507 4.344-2.821 9.565a387.318 387.318 0 00-2.424 10.137 83.54 83.54 0 001.833.163 90.43 90.43 0 011.905.155q1.847-3.081 3.837-6.675 1.996-3.594 3.6-7.07 1.59-3.474 2.634-6.496a15.935 15.935 0 001.043-4.952zM257.122 207.89l575.756-27.68-12.621 6.579-558.235 43.062-4.9-21.961zM34.168 0h141.665A34.167 34.167 0 01210 34.167v220.367a34.168 34.168 0 01-34.168 34.167H34.167A34.167 34.167 0 010 254.534V34.168A34.168 34.168 0 0134.168 0z" fill="#00aeef"/><rect x="22.344" y="24.419" width="165.313" height="238.169" rx="22.131" fill="#f2f2f2"/><rect x="57.346" y="7.133" width="95.279" height="12.442" rx="3.703" fill="#4d4d4d"/><path d="M158.606 11.237h-5.952v4.234h3.886v13.716H53.46V15.471h3.886v-4.234h-5.953a2.092 2.092 0 00-2.066 2.117v17.95a2.092 2.092 0 002.066 2.117h107.213a2.092 2.092 0 002.067-2.117v-17.95a2.092 2.092 0 00-2.067-2.117z" fill="#999"/><rect x="92.696" y="52.02" width="67.977" height="6.639" rx="1.976" fill="gray"/><path d="M94.672 77.177h64.025a1.976 1.976 0 011.976 1.976v2.687a1.976 1.976 0 01-1.976 1.976H94.672a1.976 1.976 0 01-1.976-1.976v-2.687a1.976 1.976 0 011.976-1.976z" fill="gray"/><rect x="92.696" y="64.598" width="67.977" height="6.639" rx="1.976" fill="gray"/><rect x="49.327" y="52.02" width="31.035" height="31.796" rx="9.237" fill="#ccc"/><path d="M77.328 59.215l-.729-.747a2.464 2.464 0 00-3.545 0L61.564 70.24l-5.021-5.144a2.154 2.154 0 00-3.099 0L52.268 66.3a2.284 2.284 0 000 3.175l6.373 6.528a2.566 2.566 0 00.37.484l.73.747a2.515 2.515 0 00.534.417 2.152 2.152 0 002.889-.188l1.175-1.205a2.241 2.241 0 00.344-.456l12.645-12.955a2.613 2.613 0 000-3.632z" fill="gray"/><rect x="92.696" y="102.975" width="67.977" height="6.639" rx="1.976" fill="gray"/><rect x="92.696" y="128.132" width="67.977" height="6.639" rx="1.976" fill="gray"/><rect x="92.696" y="115.554" width="67.977" height="6.639" rx="1.976" fill="gray"/><path d="M58.564 102.975h12.562a9.237 9.237 0 019.236 9.237v13.322a9.237 9.237 0 01-9.236 9.237H58.564a9.237 9.237 0 01-9.237-9.237v-13.322a9.237 9.237 0 019.237-9.237z" fill="#ccc"/><path d="M77.328 110.17l-.729-.747a2.464 2.464 0 00-3.545 0l-11.49 11.772-5.021-5.144a2.154 2.154 0 00-3.099 0l-1.176 1.204a2.284 2.284 0 000 3.175l6.373 6.528a2.566 2.566 0 00.37.484l.73.747a2.515 2.515 0 00.534.417 2.152 2.152 0 002.889-.188l1.175-1.205a2.241 2.241 0 00.344-.455l12.645-12.956a2.613 2.613 0 000-3.632zM94.672 153.93h64.025a1.976 1.976 0 011.976 1.976v2.687a1.976 1.976 0 01-1.976 1.976H94.672a1.976 1.976 0 01-1.976-1.976v-2.687a1.976 1.976 0 011.976-1.976z" fill="gray"/><rect x="92.696" y="179.088" width="67.977" height="6.639" rx="1.976" fill="gray"/><path d="M94.672 166.509h64.025a1.976 1.976 0 011.976 1.976v2.687a1.976 1.976 0 01-1.976 1.976H94.672a1.976 1.976 0 01-1.976-1.976v-2.687a1.976 1.976 0 011.976-1.976z" fill="gray"/><path d="M58.564 153.93h12.562a9.237 9.237 0 019.236 9.237v13.323a9.237 9.237 0 01-9.236 9.236H58.564a9.237 9.237 0 01-9.237-9.236v-13.323a9.237 9.237 0 019.237-9.237z" fill="#ccc"/><path d="M77.328 161.126l-.729-.748a2.464 2.464 0 00-3.545 0l-11.49 11.772-5.021-5.144a2.154 2.154 0 00-3.099 0l-1.176 1.205a2.284 2.284 0 000 3.174l6.373 6.529a2.566 2.566 0 00.37.483l.73.748a2.515 2.515 0 00.534.417 2.152 2.152 0 002.889-.189l1.175-1.204a2.241 2.241 0 00.344-.456l12.645-12.956a2.613 2.613 0 000-3.631zM94.672 204.886h64.025a1.976 1.976 0 011.976 1.976v2.687a1.976 1.976 0 01-1.976 1.975H94.672a1.976 1.976 0 01-1.976-1.975v-2.687a1.976 1.976 0 011.976-1.976z" fill="gray"/><rect x="92.696" y="230.043" width="67.977" height="6.639" rx="1.976" fill="gray"/><rect x="92.696" y="217.464" width="67.977" height="6.639" rx="1.976" fill="gray"/><rect x="49.327" y="204.886" width="31.035" height="31.796" rx="9.237" fill="#ccc"/><path d="M77.328 212.081l-.729-.747a2.464 2.464 0 00-3.545 0l-11.49 11.772-5.021-5.144a2.154 2.154 0 00-3.099 0l-1.176 1.204a2.284 2.284 0 000 3.175l6.373 6.528a2.566 2.566 0 00.37.484l.73.747a2.515 2.515 0 00.534.417 2.152 2.152 0 002.889-.188l1.175-1.205a2.241 2.241 0 00.344-.456l12.645-12.955a2.613 2.613 0 000-3.632z" fill="gray"/></svg>