<svg xmlns="http://www.w3.org/2000/svg" viewBox="0 0 459.74756 49.50391"><path d="M41.87891,245.249v-18.751h13.001v18.751c0,10-7.00049,17.001-17.00146,17.001-10.00049,0-17.001-7.001-17.001-17.001v-18.751h13.001v18.751c0,2.75,1.75,4.5,4,4.5C40.12891,249.749,41.87891,247.999,41.87891,245.249Z" transform="translate(-20.87744 -224.49707)" fill="#2cbcb2"/><path d="M80.37842,261.5l-6.00049-11.501h-.5V261.5H60.877V226.49805s7.00049-.5,14.501-.5c11.001,0,16.001,5,16.001,12.25,0,7.251-4.5,9.751-4.5,9.751L95.37939,261.5Zm-5.00049-20.50195a2.76046,2.76046,0,1,0,0-5.5h-1.5v5.5Z" transform="translate(-20.87744 -224.49707)" fill="#2cbcb2"/><path d="M110.37744,249.999h13.501V261.5h-26.502V226.49805h13.001Z" transform="translate(-20.87744 -224.49707)" fill="#2cbcb2"/><path d="M150.62646,250.499c0-2.5-13.501-2.5-13.501-13.501,0-5.75,5.50049-11.25,14.251-11.25,9.00049,0,13.501,5.5,13.501,5.5l-4.75049,7.5s-3-2.75-6.50049-2.75c-1.25,0-2,.75-2,1.5,0,2.5,13.501,2.5,13.501,13.501,0,5.75-5.50049,11.251-14.251,11.251-11.00048,0-15.501-6.001-15.501-6.001l4.75049-7.5a13.61673,13.61673,0,0,0,8.50048,3.25C149.87646,251.999,150.62646,251.249,150.62646,250.499Z" transform="translate(-20.87744 -224.49707)" fill="#d44e28"/><path d="M196.62744,247.499V261.5h-12.001V247.499c0-2-1-3-2-3s-2,1-2,3V261.5h-12.001V224.49707h12.001v14.001s2.5-4.25,7.00049-4.25C192.627,234.24805,196.62744,238.24805,196.62744,247.499Z" transform="translate(-20.87744 -224.49707)" fill="#d44e28"/><path d="M215.37646,234.24805c9.00049,0,15.251,6.25,15.251,14.001,0,7.75-6.25049,14.001-15.251,14.001s-15.251-6.251-15.251-14.001C200.12549,240.49805,206.376,234.24805,215.37646,234.24805Zm0,10.251a3.78846,3.78846,0,1,0,3.25,3.75A3.44563,3.44563,0,0,0,215.37646,244.499Z" transform="translate(-20.87744 -224.49707)" fill="#d44e28"/><path d="M253.127,234.24805a8.59028,8.59028,0,0,1,3.5.75l-2,11.001a9.86378,9.86378,0,0,0-3.50049-1c-2.5,0-4.5,2-4.5,5.5V261.5h-12.001V234.99805h11.501l1,3S249.12646,234.24805,253.127,234.24805Z" transform="translate(-20.87744 -224.49707)" fill="#d44e28"/><path d="M257.125,244.999v-10.001h3.50049v-8.5H272.626v8.5h4.50048v10.001H272.626v4.25c0,2,1,3,2.5,3a9.46124,9.46124,0,0,0,2.00048-.25V262a20.63861,20.63861,0,0,1-4.50048.5c-7.50049,0-12.00049-4.5-12.00049-13.251v-4.25Z" transform="translate(-20.87744 -224.49707)" fill="#d44e28"/><path d="M310.12646,247.499V261.5h-12.001V247.499c0-2-1-3-2-3s-2,1-2,3V261.5h-12.001V234.99805h11.501l1,3a7.64344,7.64344,0,0,1,6.50049-3.75C306.126,234.24805,310.12646,238.24805,310.12646,247.499Z" transform="translate(-20.87744 -224.49707)" fill="#d44e28"/><path d="M341.62549,248.249v2.5h-16.001s.5,2.75,4.501,2.75a7.23863,7.23863,0,0,0,4.5-2l4.25,6.751a15.0461,15.0461,0,0,1-10.5,4c-8.501,0-14.75147-6.251-14.75147-14.001a14.00074,14.00074,0,1,1,28.00147,0Zm-11.75-2.25c0-2-1-3-2.251-3-1.25,0-2.25,1-2.25,3Z" transform="translate(-20.87744 -224.49707)" fill="#d44e28"/><path d="M363.62451,234.24805a8.59792,8.59792,0,0,1,3.501.75l-2.001,11.001a9.86354,9.86354,0,0,0-3.5-1c-2.5,0-4.5,2-4.5,5.5V261.5h-12.001V234.99805h11.501l1,3S359.62451,234.24805,363.62451,234.24805Z" transform="translate(-20.87744 -224.49707)" fill="#d44e28"/><path d="M414.62451,261.5h-14.501l-1-5.001h-6.5l-1,5.001h-14.501l10.251-35.00195h17.001C404.42432,226.69727,414.62451,261.5,414.62451,261.5Zm-17.001-13.001-1.75-9.001-1.75,9.001Z" transform="translate(-20.87744 -224.49707)" fill="#242021"/><path d="M436.62305,262.25a7.97619,7.97619,0,0,1-7-3.75v15.501h-12V234.99805h11l1,3a7.97619,7.97619,0,0,1,7-3.75c5.502,0,10.502,5,10.502,14.001C447.125,257.249,442.125,262.25,436.62305,262.25Zm-4.75-17.751c-1.5,0-2.75,1.25-2.75,3.75s1.25,3.75,2.75,3.75,2.75-1.25,2.75-3.75S433.37305,244.499,431.87305,244.499Z" transform="translate(-20.87744 -224.49707)" fill="#242021"/><path d="M470.12305,262.25a7.97619,7.97619,0,0,1-7-3.75v15.501h-12V234.99805h11l1,3a7.97619,7.97619,0,0,1,7-3.75c5.502,0,10.502,5,10.502,14.001C480.625,257.249,475.625,262.25,470.12305,262.25Zm-4.75-17.751c-1.5,0-2.75,1.25-2.75,3.75s1.25,3.75,2.75,3.75,2.75-1.25,2.75-3.75S466.87305,244.499,465.37305,244.499Z" transform="translate(-20.87744 -224.49707)" fill="#242021"/></svg>