<svg xmlns="http://www.w3.org/2000/svg" viewBox="0 0 500 500"><path d="M81.82 446.22c-92.88-53.63-92.88-140.58 0-194.2s243.48-53.63 336.36 0 92.88 140.57 0 194.2-243.48 53.62-336.36 0z" fill="#f0f0f0"/><g fill="#e0e0e0"><path d="M207.67 456.34l-141.8-81.93c-5.53-3.2-5.53-8.42 0-11.62l229.6-132.66a9.23 9.23 0 018.29 0L449 314.08a4.38 4.38 0 010 7.59L216 456.34a9.23 9.23 0 01-8.33 0z"/><ellipse cx="384.29" cy="414.64" rx="52.56" ry="30.34"/></g><path d="M80.51 326.81s-.3-21.35-9.17-38.78-22.28-29.09-35.64-31.49-25.46 8.9-11.9 18.84 38.28 21.16 46.89 54.14z" fill="#2cbcb2"/><path d="M80.51 326.81s-.3-21.35-9.17-38.78-22.28-29.09-35.64-31.49-25.46 8.9-11.9 18.84 38.28 21.16 46.89 54.14z" opacity=".15"/><path d="M77.11 320.93a.35.35 0 00.14 0 .71.71 0 00.49-.89c-10.72-36.4-36.31-53.7-48.35-57.76a.72.72 0 00-.46 1.36c11.79 4 36.87 21 47.43 56.8a.71.71 0 00.75.49z" fill="#fff"/><path d="M81.86 347c-5 2.85-7.8 4.7-16.89 5.46a48.11 48.11 0 01-19.1-2.59c-1.69-.61-4.3-1.94-2.83-3.56.76-.84 9.68-2.26 12.87-6a58.85 58.85 0 01-12.51 2.22 16.33 16.33 0 01-10.85-3.33c-2.95-2.46-4.54-6.13-6-9.67-.51-1.21-1-2.69-.21-3.74a3.78 3.78 0 012.16-1.15l10.13-2.83c2.21-.47.65-1.92-.18-2.05a19.1 19.1 0 00-3.68-.16c-3.87.21-8.14.94-11.3-1.31a9.45 9.45 0 01-3.47-5.9c-.16-.8-.83-11.24-.37-11.37a51.85 51.85 0 017.73-1.34c2.45-.29 4.84-.4 7.28-.73a61 61 0 018.32-.54 5.1 5.1 0 012.74.54 4.42 4.42 0 011.68 3.37 15.87 15.87 0 00.52 3.84c1.18-.1 1.57-1.65 1.54-2.84s0-2.68 1.07-3.19a2.84 2.84 0 011.78 0 48.6 48.6 0 0111 3.65 12.63 12.63 0 014.33 2.95c1.7 2 2.2 4.72 2.22 7.33s-.39 5.2-.22 7.8c2-1.82 4.87-7.35 5.09-10.07 4.38 2.81 7 8.62 7.79 16.55a80.28 80.28 0 01-.32 17.45c-.11.14-.18 1.07-.32 1.21z" fill="#2cbcb2"/><path d="M81.86 347c-5 2.85-7.8 4.7-16.89 5.46a48.11 48.11 0 01-19.1-2.59c-1.69-.61-4.3-1.94-2.83-3.56.76-.84 9.68-2.26 12.87-6a58.85 58.85 0 01-12.51 2.22 16.33 16.33 0 01-10.85-3.33c-2.95-2.46-4.54-6.13-6-9.67-.51-1.21-1-2.69-.21-3.74a3.78 3.78 0 012.16-1.15l10.13-2.83c2.21-.47.65-1.92-.18-2.05a19.1 19.1 0 00-3.68-.16c-3.87.21-8.14.94-11.3-1.31a9.45 9.45 0 01-3.47-5.9c-.16-.8-.83-11.24-.37-11.37a51.85 51.85 0 017.73-1.34c2.45-.29 4.84-.4 7.28-.73a61 61 0 018.32-.54 5.1 5.1 0 012.74.54 4.42 4.42 0 011.68 3.37 15.87 15.87 0 00.52 3.84c1.18-.1 1.57-1.65 1.54-2.84s0-2.68 1.07-3.19a2.84 2.84 0 011.78 0 48.6 48.6 0 0111 3.65 12.63 12.63 0 014.33 2.95c1.7 2 2.2 4.72 2.22 7.33s-.39 5.2-.22 7.8c2-1.82 4.87-7.35 5.09-10.07 4.38 2.81 7 8.62 7.79 16.55a80.28 80.28 0 01-.32 17.45c-.11.14-.18 1.07-.32 1.21z" opacity=".3"/><path d="M81 346a.61.61 0 01-.53-.32c-14.19-27.24-45.57-38.72-53.2-40.3a.6.6 0 01.25-1.18c7.74 1.61 39.61 13.26 54 40.93a.59.59 0 01-.25.8.55.55 0 01-.27.07z" fill="#fff"/><path d="M39.82 330.27a.61.61 0 01-.6-.56.59.59 0 01.55-.64c15.66-1.23 20.72-7.36 20.77-7.42a.6.6 0 01.94.74c-.21.27-5.37 6.6-21.61 7.87z" fill="#fff"/><g><path d="M460 254.3c-6.94 7.59-19.67 20.08-27.07 32.14a.41.41 0 00-.05.09c-2.89 4.73-5 9.39-5.53 13.66l-.52 7.71-3.17-1.83-.53-.31-1.31-.75a6.27 6.27 0 01-3.12-5.25c-.51-18.8 4.52-34.78 9.38-44.45 6.65-13.21 19.11-26.68 29.94-25.36 10.11 1.23 11.7 13.77 1.98 24.35z" fill="#2cbcb2"/><path d="M460 254.3c-6.94 7.59-19.67 20.08-27.07 32.14a.41.41 0 00-.05.09c-2.89 4.73-5 9.39-5.53 13.66l-.52 7.71-3.17-1.83-.53-.31-1.31-.75a6.27 6.27 0 01-3.12-5.25c-.51-18.8 4.52-34.78 9.38-44.45 6.65-13.21 19.11-26.68 29.94-25.36 10.11 1.23 11.7 13.77 1.98 24.35z" opacity=".15"/><path d="M454.93 237.24c-13.26 8.38-32.19 37.59-31.76 68.52l-1.31-.75c-.11-31.12 19-60.4 32.37-68.87a.65.65 0 01.7 1.1z" fill="#fff"/><path d="M467.9 279.08c-2.31 6.27-15.49 11.71-25.22 20.76a63.17 63.17 0 00-6.68 7.25 6.12 6.12 0 01-7.89 1.52l-1.16-.67h-.08l-3.17-1.83a64 64 0 019.22-19.54.41.41 0 01.05-.09c6.44-9.34 14.39-16.09 19.94-17.62 10.91-3.04 17.76 2.69 14.99 10.22z" fill="#2cbcb2"/><path d="M467.9 279.08c-2.31 6.27-15.49 11.71-25.22 20.76a63.17 63.17 0 00-6.68 7.25 6.12 6.12 0 01-7.89 1.52l-1.16-.67h-.08l-3.17-1.83a64 64 0 019.22-19.54.41.41 0 01.05-.09c6.44-9.34 14.39-16.09 19.94-17.62 10.91-3.04 17.76 2.69 14.99 10.22z" opacity=".3"/><path d="M458.63 275.31c-8 2.25-23.41 12-30.52 33.3l-1.16-.67c7.21-21.59 22.56-31.41 31.33-33.88a.65.65 0 11.35 1.25z" fill="#fff"/></g><g><path d="M73.1 359.31c0 3.47 2.6 7.78 5.8 9.63l126.29 72.93a12.82 12.82 0 0011.6 0l222.37-128.39c3.21-1.85 5.8-6.16 5.8-9.63s-2.59-7.79-5.8-9.64l-126.28-72.92a12.82 12.82 0 00-11.6 0L78.9 349.68c-3.2 1.85-5.8 6.16-5.8 9.63z" fill="#455a64"/><path d="M445 303.85c0 3.47-2.6 7.77-5.8 9.63L216.79 441.87a12 12 0 01-5.8 1.38v-12.56a12 12 0 005.8-1.39l222.38-128.39c2.8-1.61 3.15-4.12 1.05-6 2.69 2.14 4.78 5.86 4.78 8.94z" fill="#37474f"/><path d="M211 430.7v12.55a11.87 11.87 0 01-5.8-1.38L78.9 368.94c-3.2-1.85-5.8-6.16-5.8-9.63 0-3.26 2.29-7.25 5.21-9.26-2.6 1.86-2.4 4.6.59 6.33l126.29 72.93a11.87 11.87 0 005.81 1.39z" fill="#263238"/><path d="M67.66 349.88c-2.84-2-2.84-4.66-2.84-8.36V154.64a12.79 12.79 0 015.8-10L293 16.21c3.21-1.85 6.16-.51 9.17 1.22s4.92 3.24 4.92 6.93v186.88a12.84 12.84 0 01-5.8 10L78.9 349.68c-4.85 3.32-8.16 2.38-11.24.2z" fill="#37474f"/><path d="M78.9 349.68c-4.85 3.26-8.16 2.38-11.24.2-2.83-2-2.84-4.66-2.84-8.36V154.65a11.87 11.87 0 011.69-5.71l8.28 4.81a11.75 11.75 0 00-1.69 5.7v186.88c0 3.67 2.59 5.19 5.8 3.35z" fill="#263238"/><path d="M307.08 24.36c0-3.69-2.6-5.19-5.8-3.35L78.9 149.41a11.66 11.66 0 00-4.1 4.33l-8.28-4.81a12 12 0 014.11-4.34L293 16.21c3.2-1.85 6.16-.51 9.16 1.22s4.92 3.24 4.92 6.93z" fill="#455a64"/><path d="M82 156.1L296.42 32.34c1.92-1.11 3.48-.21 3.48 2v171.42a7.7 7.7 0 01-3.48 6L82 335.54c-1.92 1.11-3.48.21-3.48-2V162.12A7.68 7.68 0 0182 156.1z" fill="#263238"/><path d="M82 156.1a7.68 7.68 0 00-3.48 6v170.39l213.14-123a7.7 7.7 0 003.48-6V33.07z" fill="#2cbcb2"/><path d="M82 156.1a7.68 7.68 0 00-3.48 6v170.39l213.14-123a7.7 7.7 0 003.48-6V33.07z" fill="#fff" opacity=".65"/><path d="M95 350l206.37-119.15a6.38 6.38 0 015.8 0l6 3.15c1.6.93 1.6 2.43 0 3.35L106.73 356.5a6.38 6.38 0 01-5.8 0l-6-3.13c-1.58-.93-1.58-2.43.07-3.37z" fill="#37474f"/><path d="M111.14 359.65l206.41-119.18a6 6 0 015.3-.29l53.73 31c1.32.77 1.1 2.14-.5 3.06l-206.17 119a5.94 5.94 0 01-5.31.3l-53.95-30.84c-1.33-.76-1.11-2.13.49-3.05z" fill="#263238"/><path d="M288.3 290l6.46-3.73c.27-.16.31-.39.09-.52l-5.7-3.3a1 1 0 00-.91.06l-6.46 3.73c-.27.16-.31.39-.09.52l5.7 3.29a1 1 0 00.91-.05zm-9-12.67l-6.47 3.73c-.27.16-.31.39-.09.52l5.71 3.29a1 1 0 00.9-.05l6.46-3.73c.28-.16.32-.39.09-.52l-5.7-3.29a1 1 0 00-.92.09zm-20.9 12.1l-10.94 6.31c-.27.16-.31.39-.09.52l5.7 3.29a1 1 0 00.91-.05l10.93-6.31c.28-.16.32-.4.09-.53l-5.7-3.29a1 1 0 00-.9.06zm11.43-6.61l-6.46 3.73c-.28.16-.32.4-.09.53l5.7 3.29a1 1 0 00.9-.05l6.47-3.73c.27-.16.31-.4.09-.53l-5.7-3.29a1 1 0 00-.91.05zm-25.35 14.64l-6.48 3.73c-.28.16-.32.4-.1.52l5.71 3.3a1 1 0 00.9-.06l6.46-3.73c.28-.16.32-.39.09-.52l-5.7-3.29a1 1 0 00-.88.05zm-9.48 5.46l-6.46 3.73c-.28.15-.32.39-.09.52l5.7 3.29a1 1 0 00.9 0l6.47-3.73c.27-.16.31-.4.09-.53l-5.7-3.29a1 1 0 00-.91.01zm24 14.4l6.46-3.74c.28-.15.32-.39.09-.52l-5.7-3.29a1 1 0 00-.9.05l-6.46 3.73c-.28.16-.32.4-.09.53l5.7 3.29a1 1 0 00.9-.05zm-9.44 5.45L256 319c.27-.16.31-.39.09-.52l-5.7-3.29a1 1 0 00-.91 0L243 319c-.27.16-.31.39-.09.52l5.7 3.29a1 1 0 00.93-.04zm-9.45 5.45l6.46-3.73c.28-.16.32-.39.09-.52l-5.7-3.29a1 1 0 00-.9.05l-6.47 3.73c-.27.16-.31.39-.08.52l5.7 3.29a1 1 0 00.88-.05zm-9.45 5.46l6.47-3.73c.27-.16.31-.4.09-.53l-5.7-3.29a1 1 0 00-.91.05l-6.46 3.73c-.28.16-.32.4-.09.53l5.7 3.29a1 1 0 00.88-.05zm48.21-38.19l6.46-3.73c.28-.16.32-.39.09-.52L279.7 288a1 1 0 00-.9.05l-6.47 3.73c-.27.16-.31.39-.09.52l5.7 3.29a1 1 0 00.91-.1zm-10.42 16.37l14.41-8.32c.28-.16.32-.39.09-.52l-14.66-8.47a1 1 0 00-.91.05l-7.45 4.31c-.28.16-.32.39-.09.52l8.15 4.7c.22.13.18.37-.09.53l-6 3.44c-.27.16-.31.39-.09.52l5.7 3.29a1 1 0 00.92-.05zm-42.84-3.49l-6.47 3.73c-.27.16-.31.39-.09.52l5.7 3.29a1 1 0 00.91-.05l6.46-3.73c.28-.16.32-.39.09-.52l-5.7-3.29a1 1 0 00-.92.05zm-9.45 5.45l-6.46 3.73c-.28.16-.32.4-.09.53l5.7 3.29a1 1 0 00.9-.06l6.47-3.73c.27-.15.31-.39.09-.52l-5.77-3.29a1 1 0 00-.86.05zm-52.54 58.08a1 1 0 00.9 0l6.47-3.73c.27-.16.31-.39.09-.52l-5.7-3.29a1 1 0 00-.91.05l-6.47 3.68c-.27.16-.31.39-.09.52zm-23-14.45l-6.47 3.73c-.27.16-.31.39-.09.52l5.7 3.29a1 1 0 00.91-.05l6.46-3.73c.28-.16.32-.39.09-.52l-5.7-3.29a1 1 0 00-.94.05zm11.59 10.71a1 1 0 00.9-.05l6.47-3.73c.27-.16.31-.39.09-.52l-5.7-3.3a1 1 0 00-.91.06l-6.46 3.73c-.28.16-.32.39-.09.52zm26.29 6l6.46-3.73c.28-.16.32-.4.09-.53l-5.7-3.29a1 1 0 00-.9.05L172 370.4c-.28.15-.32.39-.09.52l5.7 3.29a1 1 0 00.85-.05zm-10.35 5.5a1 1 0 00.91-.05l6.46-3.73c.27-.16.31-.39.09-.52l-5.7-3.29a1 1 0 00-.91.05l-6.46 3.73c-.27.16-.31.39-.09.52zM150 352l-6.46 3.73c-.28.16-.32.39-.09.52l5.7 3.29a1 1 0 00.9-.05l6.47-3.73c.27-.16.31-.39.09-.52l-5.7-3.3a1 1 0 00-.91.06zm47.23-27.27l-6.46 3.73c-.28.16-.32.39-.09.52l5.7 3.29a1 1 0 00.9 0l6.46-3.73c.28-.16.32-.39.09-.52l-5.7-3.29a1 1 0 00-.88 0zm-37.78 21.81l-6.45 3.73c-.27.16-.31.4-.09.53l5.7 3.29a1 1 0 00.91 0l6.48-3.79c.28-.15.32-.39.09-.52l-5.7-3.29a1 1 0 00-.92.05zm47.22-27.26l-6.44 3.72c-.27.15-.31.39-.09.52l5.7 3.29a1 1 0 00.91-.05l6.46-3.73c.27-.16.31-.4.09-.53l-5.7-3.29a1 1 0 00-.91.07zm-18.89 10.9l-6.46 3.73c-.27.16-.31.4-.09.53l5.7 3.29a1 1 0 00.91-.06l6.46-3.73c.27-.15.31-.39.09-.52l-5.7-3.29a1 1 0 00-.89.05zm-9.44 5.46l-6.46 3.73c-.28.16-.32.39-.09.52l5.7 3.29a1 1 0 00.9-.05l6.46-3.73c.28-.16.32-.4.09-.52l-5.7-3.3a1 1 0 00-.88.06zm-9.45 5.45l-6.46 3.73c-.27.16-.31.39-.09.52l5.7 3.29a1 1 0 00.91-.05l6.46-3.73c.27-.16.31-.39.09-.52l-5.7-3.29a1 1 0 00-.89.05zm42.84 3.49l6.47-3.73c.27-.16.31-.39.09-.52L212.6 337a1 1 0 00-.9 0l-6.46 3.73c-.28.16-.32.39-.09.52l5.7 3.3a1 1 0 00.9.03zm88.41-79.27l-6.47 3.74c-.27.15-.31.39-.09.52l5.71 3.29a1 1 0 00.9-.05l6.46-3.73c.28-.16.32-.4.09-.53l-5.7-3.29a1 1 0 00-.88.05zm-11.44 6.61l-6.46 3.73c-.27.16-.31.39-.09.52l5.7 3.29a1 1 0 00.9 0l6.47-3.73c.27-.16.31-.39.09-.52l-5.7-3.3a1 1 0 00-.89.01zm20.88-12.06l-6.46 3.73c-.27.16-.31.4-.09.53l5.7 3.29a1 1 0 00.9-.06l6.47-3.73c.27-.16.31-.39.09-.52l-5.7-3.29a1 1 0 00-.89.05zM257 308.12l6.46-3.73c.27-.16.31-.39.09-.52l-5.7-3.29a1 1 0 00-.91.05l-6.46 3.73c-.27.16-.31.39-.09.52l5.7 3.29a1 1 0 00.91-.05zm63-53.76a1 1 0 00-.9 0l-6.46 3.73c-.28.16-.32.39-.09.52l5.7 3.29a1 1 0 00.9-.05l6.46-3.73c.28-.16.32-.39.09-.52zm-98.8 84.77l6.46-3.73c.28-.16.32-.39.09-.52l-5.7-3.29a1 1 0 00-.9.05l-6.47 3.73c-.27.16-.31.39-.09.52l5.7 3.29a1 1 0 00.91-.05zM337 272.25l6.46-3.73c.28-.16.32-.39.09-.52l-5.7-3.29a1 1 0 00-.9.05l-6.46 3.73c-.28.16-.32.39-.09.52l5.7 3.3a1 1 0 00.9-.06zm-18.41.28l6.46-3.73c.28-.16.32-.39.09-.52l-5.7-3.29a1 1 0 00-.9.05l-6.46 3.73c-.28.16-.32.39-.09.52l5.7 3.29a1 1 0 00.93-.05zm10.3-13a1 1 0 00-.91.05l-6.46 3.74c-.27.15-.31.39-.09.52l5.7 3.29a1 1 0 00.91-.05l6.46-3.73c.27-.16.31-.4.09-.53zm2-1.15l14.66 8.47a1 1 0 00.91-.05l6.46-3.73c.27-.16.31-.39.09-.52l-14.67-8.47a1 1 0 00-.9 0l-6.44 3.78c-.28.14-.32.39-.09.52zm-21.79 12.11l-6.46 3.73c-.27.16-.32.39-.09.52l5.7 3.3a1 1 0 00.91-.06l6.46-3.73c.27-.16.31-.39.09-.52l-5.7-3.29a1 1 0 00-.89.05zM238 311.54l-6.46 3.73c-.28.16-.32.39-.09.52l5.7 3.29a1 1 0 00.9-.05l6.47-3.73c.27-.16.31-.4.09-.52l-5.7-3.3a1 1 0 00-.91.06zm88.65-33.78a1 1 0 00.91-.05l6.46-3.73c.27-.16.31-.4.09-.53l-5.7-3.29a1 1 0 00-.91 0l-6.43 3.84c-.27.15-.31.39-.09.52zm-79.2 28.32l-6.45 3.73c-.27.16-.31.4-.08.53l5.7 3.29a1 1 0 00.9-.05l6.46-3.74c.28-.15.32-.39.09-.52l-5.7-3.29a1 1 0 00-.89.05zm-74.41 60.37a1 1 0 00.9-.05l6.46-3.73c.28-.16.32-.4.09-.53l-5.7-3.29a1 1 0 00-.9 0l-6.46 3.74c-.28.15-.32.39-.09.52zm-10.6-11.29l-6.44 3.73c-.27.16-.31.4-.09.53l5.7 3.29a1 1 0 00.91 0l6.46-3.74c.28-.15.32-.39.09-.52l-5.7-3.29a1 1 0 00-.9 0zm20.95 5.78l6.46-3.73c.27-.16.31-.39.09-.52l-5.7-3.29a1 1 0 00-.91.05l-6.46 3.73c-.27.16-.31.39-.09.52l5.7 3.3a1 1 0 00.94-.06zm9.44-5.45l6.46-3.73c.28-.16.32-.39.09-.52l-5.7-3.29a1 1 0 00-.9.05l-6.46 3.73c-.28.16-.32.39-.09.52l5.7 3.29a1 1 0 00.93-.05zm9.45-5.45l6.46-3.73c.27-.16.31-.4.09-.53l-5.7-3.29a1 1 0 00-.91.05l-6.46 3.74c-.27.15-.31.39-.09.52l5.7 3.29a1 1 0 00.94-.09zm-30.4-.33l-6.46 3.73c-.27.16-.31.39-.09.52l5.7 3.29a1 1 0 00.91-.05l6.46-3.73c.27-.16.31-.39.09-.52l-5.7-3.29a1 1 0 00-.88.05zm9.45-5.45L174.9 348c-.28.16-.32.39-.09.52l5.7 3.29a1 1 0 00.9-.05l6.46-3.73c.28-.16.32-.39.09-.52l-5.7-3.3a1 1 0 00-.9.05zm37.78-21.82l-6.46 3.73c-.28.16-.32.4-.09.53l5.7 3.29a1 1 0 00.9-.05l6.47-3.74c.27-.15.31-.39.09-.52l-5.72-3.29a1 1 0 00-.86.05zm-9.45 5.46l-6.46 3.73c-.27.16-.31.39-.09.52l5.7 3.29a1 1 0 00.91-.05l6.46-3.73c.27-.16.32-.39.09-.52l-5.7-3.3a1 1 0 00-.88.06zm18.93-10.9l-6.47 3.73c-.27.16-.31.39-.09.52l5.7 3.29a1 1 0 00.91 0l6.46-3.73c.28-.16.32-.39.09-.52l-5.7-3.29a1 1 0 00-.9 0zm-37.79 21.8l-6.46 3.73c-.27.16-.31.4-.09.53l5.7 3.29a1 1 0 00.91-.05l6.46-3.74c.27-.15.31-.39.09-.52l-5.7-3.29a1 1 0 00-.91.05zm9.45-5.45l-6.46 3.73c-.28.16-.32.39-.09.52l5.7 3.29a1 1 0 00.9-.05l6.46-3.73c.28-.16.32-.39.09-.52l-5.7-3.29a1 1 0 00-.9.05zm-12.34 35.35l6.46-3.73c.27-.16.31-.39.09-.52l-5.7-3.29a1 1 0 00-.91 0l-6.46 3.73c-.27.16-.31.39-.09.52l5.7 3.3a1.05 1.05 0 00.91-.01zm-50.17-2.56l-5.74-3.29a1 1 0 00-.9 0l-6.46 3.73c-.28.16-.32.4-.09.53l5.7 3.29a1 1 0 00.9-.05l6.47-3.74c.3-.1.38-.34.12-.47zm12.44 3.17l-5.7-3.29a1 1 0 00-.9.05l-10 5.74c-.27.16-.31.39-.09.52l5.7 3.29a1 1 0 00.91-.05l9.94-5.74c.33-.16.37-.39.14-.52zm-20.84-9.74l-5.7-3.29a1 1 0 00-.9.06l-8 4.59c-.27.16-.31.39-.09.52l5.7 3.29a1 1 0 00.91-.05l8-4.59c.27-.16.31-.4.08-.53zm6.1-3.52a1 1 0 00.9-.05l6.47-3.73c.27-.16.31-.39.09-.52l-5.7-3.29a1 1 0 00-.91.05l-6.46 3.73c-.28.16-.32.39-.09.52zm26.19 17l-5.7-3.29a1 1 0 00-.9.05L142.6 377c-.28.16-.32.39-.09.52l5.7 3.29a1 1 0 00.9-.05l12.43-7.18c.28-.17.32-.4.09-.53zm4.49 7.76l-5.7-3.29a1 1 0 00-.9.05l-8 4.59c-.27.16-.31.4-.09.53l5.7 3.29a1 1 0 00.91-.06l7.95-4.59c.32-.16.36-.39.13-.52zm39.55-65.3a1 1 0 00.9-.05l6.47-3.74c.27-.15.31-.39.09-.52l-5.7-3.29a1 1 0 00-.91 0l-6.46 3.73c-.28.16-.32.4-.09.53zm-18.89 10.9a1 1 0 00.9-.05l6.47-3.73c.27-.16.31-.39.09-.52l-5.71-3.29a1 1 0 00-.9.05l-6.46 3.73c-.28.16-.32.39-.09.52zm-41.89 24.19a1 1 0 00.9-.05l6.46-3.73c.28-.16.32-.4.09-.52l-5.7-3.3a1 1 0 00-.9.06l-6.46 3.73c-.28.16-.32.39-.09.52zm51.33-29.6a1 1 0 00.91 0l6.46-3.73c.28-.16.32-.4.09-.53l-5.7-3.29a1 1 0 00-.9.06l-6.47 3.73c-.27.16-.31.39-.09.52zm-18.89 10.91a1 1 0 00.91-.05l6.46-3.74c.27-.15.31-.39.09-.52l-5.7-3.29a1 1 0 00-.91.05l-6.46 3.73c-.27.16-.31.4-.09.53zm-6 49.68a1 1 0 00-.91.05l-9.94 5.74c-.28.16-.32.39-.09.52l5.7 3.29a1 1 0 00.9 0l10-5.74c.27-.16.31-.39.09-.52zm-7.6-41.86a1 1 0 00.9-.05l6.46-3.73c.28-.16.32-.39.09-.52l-5.7-3.29a1 1 0 00-.9 0l-6.46 3.73c-.28.16-.32.39-.09.52zm-9.45 5.46a1 1 0 00.91 0l6.46-3.74c.27-.15.31-.39.09-.52l-5.7-3.29a1 1 0 00-.91.05l-6.46 3.73c-.27.16-.31.4-.09.53zm192-64.64a1.05 1.05 0 00-.91.06l-15.9 9.18c-.28.16-.32.39-.09.52l5.7 3.29a1 1 0 00.9-.05l16.02-9.22c.27-.16.32-.39.09-.52zm-20.88 12.06a1 1 0 00-.9.05l-6.47 3.73c-.27.16-.31.4-.09.53l5.7 3.29a1 1 0 00.91-.06l6.46-3.73c.28-.15.32-.39.09-.52zm-128.05 70.64l6.47-3.73c.27-.16.31-.39.09-.52l-5.7-3.3a1 1 0 00-.91.06l-6.46 3.73c-.28.16-.32.39-.09.52l5.7 3.29a1 1 0 00.9-.05zm109.25-59.77a1 1 0 00-.91 0l-6.46 3.73c-.27.16-.31.39-.09.52l5.7 3.29a1 1 0 00.91-.05l6.46-3.73c.27-.16.31-.39.09-.52zm49.22-28.42a1 1 0 00-.91.05l-6.46 3.73c-.28.16-.32.4-.09.53l5.7 3.29a1 1 0 00.9-.05l6.47-3.73c.27-.16.31-.4.09-.53zM371 272.9l-14.67-8.47a1 1 0 00-.9.05l-6.46 3.74c-.28.15-.32.39-.09.52l14.66 8.46a1 1 0 00.91-.05l6.46-3.73c.24-.16.28-.42.09-.52zm-99.66 51a1 1 0 00-.9.05l-8 4.59c-.27.16-.31.39-.09.52l5.7 3.29a1 1 0 00.91-.05l8-4.59c.28-.16.32-.39.09-.52zm23.86-13.78a1 1 0 00-.9.05l-9.94 5.74c-.28.16-.32.39-.09.52l5.7 3.29a1 1 0 00.9-.05l9.95-5.74c.27-.16.31-.39.08-.52zm-45.73 26.4a1 1 0 00-.91.06l-53.19 30.71c-.27.16-.32.39-.09.52l5.7 3.29a1 1 0 00.9-.05L255 340.3c.27-.16.31-.39.09-.52zm-56.18 32.44a1 1 0 00-.9.05l-8 4.59c-.27.16-.31.39-.09.52l5.7 3.3a1 1 0 00.91-.06l8-4.59c.28-.16.32-.39.09-.52zm67.11-38.75a1 1 0 00-.9.05l-7.95 4.59c-.28.16-.32.4-.09.53l5.7 3.29a1 1 0 00.9-.05l8-4.6c.27-.16.31-.39.08-.52zm-78.05 45.06a1 1 0 00-.9 0l-7.95 4.6c-.28.16-.32.39-.09.52l5.7 3.29a1 1 0 00.9-.05l7.95-4.59c.28-.16.32-.4.09-.53zm99.93-57.69a1 1 0 00-.91 0l-7.95 4.6c-.27.15-.31.39-.09.52L279 326a1 1 0 00.91-.05l8-4.6c.27-.15.31-.39.09-.52zM316 298a1 1 0 00-.9.06l-6.46 3.73c-.28.15-.32.39-.09.52l5.7 3.29a1 1 0 00.9-.05l6.46-3.73c.28-.16.32-.4.09-.53zm20.51-15.14l6.46-3.73c.28-.16.32-.39.09-.52l-5.7-3.29a1 1 0 00-.9.05l-6.46 3.75c-.28.16-.32.39-.09.52l5.7 3.3a1 1 0 00.94-.06zm-38.81 1.71l6.46-3.74c.28-.15.32-.39.09-.52l-5.7-3.29a1 1 0 00-.9 0l-6.46 3.73c-.28.16-.32.4-.09.53l5.7 3.29a1 1 0 00.94.02zm-24.82 35l18.89-10.9c.27-.16.31-.4.09-.53l-5.7-3.29a1 1 0 00-.91.05l-18.85 10.96c-.27.16-.31.39-.09.52l5.7 3.29a1 1 0 00.91-.05zm53.28-31.23a1 1 0 00.91-.05l6.46-3.73c.27-.16.31-.4.09-.53l-5.7-3.29a1 1 0 00-.91 0l-6.46 3.74c-.27.15-.31.39-.09.52zm-8.06-5.23l6.46-3.73c.28-.16.32-.39.09-.52l-5.7-3.29a1 1 0 00-.9.05l-6.46 3.73c-.28.16-.32.39-.09.52l5.7 3.29a1 1 0 00.94 0zm-54.67 41.92l6.47-3.74c.27-.15.31-.39.08-.52l-5.7-3.29a1 1 0 00-.9.05l-6.38 3.78c-.28.16-.32.4-.09.53l5.7 3.29a1 1 0 00.86-.05zm41.85-24.64a1 1 0 00.91-.05l6.46-3.73c.27-.16.31-.39.09-.52l-5.7-3.29a1 1 0 00-.91 0l-6.46 3.73c-.27.16-.31.39-.09.52zm-89.08 51.9l6.47-3.73c.27-.16.31-.39.09-.52l-5.7-3.29a1 1 0 00-.91.05l-6.46 3.73c-.28.16-.32.39-.09.52l5.7 3.29a1 1 0 00.94 0zm9.45-5.45l6.46-3.73c.28-.16.32-.39.09-.52l-5.7-3.3a1 1 0 00-.9.06l-6.46 3.73c-.28.16-.32.39-.1.52l5.71 3.29a1 1 0 00.94 0zM206.8 357.8l6.46-3.73c.28-.16.32-.4.09-.53l-5.7-3.29a1 1 0 00-.9.05l-6.47 3.7c-.27.16-.31.4-.09.53l5.7 3.29a1 1 0 00.91-.02zm37.78-21.8l6.46-3.73c.28-.16.32-.39.09-.52l-5.7-3.29a1 1 0 00-.9.05l-6.46 3.73c-.28.16-.32.39-.09.52l5.7 3.29a1 1 0 00.9-.05zm-9.44 5.46l6.46-3.74c.27-.15.31-.39.09-.52l-5.7-3.29a1 1 0 00-.91.05l-6.46 3.73c-.27.16-.31.4-.09.53l5.7 3.29a1 1 0 00.91-.07zM254 330.53l6.46-3.73c.27-.16.31-.39.09-.52l-5.7-3.3a1 1 0 00-.91.06l-6.46 3.73c-.27.16-.31.39-.09.52l5.7 3.29a1 1 0 00.91-.05zM306.22 255a1 1 0 00.9 0l6.47-3.73c.27-.16.31-.4.09-.53l-1.52-.87a1 1 0 00-.9 0l-6.47 3.73c-.27.16-.31.39-.09.52zm-47.12 29.66a1 1 0 00.9-.05l6.46-3.73c.28-.16.32-.39.09-.52l-5.7-3.29a1 1 0 00-.9.05l-6.47 3.73c-.27.16-.31.39-.09.52zm18.9-10.91a1 1 0 00.9-.05l6.46-3.73c.28-.16.32-.39.09-.52l-5.7-3.29a1 1 0 00-.9 0l-6.46 3.73c-.28.16-.32.39-.09.52zm-30.43 17.57a1 1 0 00.91-.05l6.46-3.73c.27-.16.31-.39.09-.52l-5.7-3.3a1 1 0 00-.91.06l-6.42 3.73c-.27.16-.31.39-.09.52zm21-12.11a1 1 0 00.91 0l6.46-3.74c.27-.15.31-.39.09-.52l-5.7-3.29a1 1 0 00-.91.05l-6.46 3.73c-.27.16-.31.4-.09.53zm-39.87 23a1 1 0 00.9-.05l6.47-3.74c.27-.15.31-.39.09-.52l-5.7-3.29a1 1 0 00-.91.05l-6.46 3.73c-.28.16-.32.4-.09.53zm9.45-5.46a1 1 0 00.9 0l6.46-3.73c.28-.16.32-.39.09-.52l-5.7-3.29a1 1 0 00-.9.05l-6.49 3.74c-.28.16-.32.39-.09.52zM287.33 266a1 1 0 00.9-.06l6.47-3.73c.27-.16.31-.39.09-.52l-1.52-.88a1 1 0 00-.91.06l-6.46 3.73c-.27.16-.31.39-.09.52zm28.34-16.36a1 1 0 00.9-.06l6.43-3.78c.28-.16.32-.39.09-.52l-1.51-.88a1 1 0 00-.91.06l-6.46 3.73c-.28.16-.32.39-.09.52zm12 6.91a1 1 0 00.91-.05l6.46-3.73c.27-.16.31-.4.09-.53l-5.7-3.29a1 1 0 00-.91 0l-6.52 3.74c-.27.15-.31.39-.09.52zM346 277.43l6.46-3.73c.27-.16.32-.39.09-.52l-5.7-3.29a1 1 0 00-.91.05l-6.46 3.73c-.27.16-.31.39-.09.52l5.7 3.29a1 1 0 00.91-.05zm-49.22-16.94a1 1 0 00.9-.05l6.46-3.73c.28-.16.32-.39.09-.52l-1.52-.88a1 1 0 00-.9.05l-6.46 3.73c-.28.16-.32.4-.09.53zm-77.56 47.19a1 1 0 00.91-.05l6.46-3.73c.28-.16.32-.39.09-.52l-5.7-3.3a1 1 0 00-.9.06l-6.47 3.73c-.27.16-.31.39-.09.52z" fill="#455a64"/><path fill="#263238" d="M248.15 356.46l1.32.76 35.2 20.32 62.59-36.14 1.3-.74-36.52-21.08-63.89 36.88z"/><path fill="#37474f" d="M346.68 341.74l-34.64-19.98-61.99 35.8 34.62 19.98 62.01-35.8z"/></g><g><path d="M386.22 63.42c0-2.63-.92-4.49-2.41-5.36s-10.23-5.92-11.75-6.78-3.57-.73-5.85.59L203 146.13v54l11.7 6.75 163.2-94.23c4.6-2.65 8.32-9.09 8.32-14.4z" fill="#2cbcb2"/><path d="M386.22 63.42c0-2.63-.92-4.49-2.41-5.36s-10.23-5.92-11.75-6.78-3.57-.73-5.85.59L203 146.13v54l11.7 6.75 163.2-94.23c4.6-2.65 8.32-9.09 8.32-14.4z" opacity=".15"/><path d="M377.9 58.62c4.6-2.65 8.32-.5 8.32 4.8v34.83c0 5.31-3.72 11.75-8.32 14.4l-163.25 94.26v-54z" fill="#2cbcb2"/><path d="M376.23 108.2a12.42 12.42 0 005.6-9.7V66.32c0-2.54-1.79-3.57-4-2.31L217.94 156.4v43.26z" fill="#fafafa"/><path d="M245.8 173a1.69 1.69 0 01-.17.74 1.11 1.11 0 01-.42.51l-2.76 1.59a.31.31 0 01-.42 0 .74.74 0 01-.17-.54v-8.54a3.58 3.58 0 00-.46-2.06c-.31-.41-.79-.42-1.45 0a3.32 3.32 0 00-1.44 1.7 7.25 7.25 0 00-.44 2.59v8.54a1.72 1.72 0 01-.18.75 1.23 1.23 0 01-.42.51l-2.76 1.59a.31.31 0 01-.42 0 .74.74 0 01-.17-.54v-22.26a1.81 1.81 0 01.17-.74 1.11 1.11 0 01.42-.51l2.76-1.6a.33.33 0 01.42 0 .7.7 0 01.18.54v7.19a10 10 0 011.16-2 5.77 5.77 0 011.82-1.71 4.41 4.41 0 011.93-.65 1.93 1.93 0 011.5.53 3.94 3.94 0 011 1.83 12.12 12.12 0 01.35 3.24zM253.39 162.66a1.88 1.88 0 00.22 1.07c.14.19.39.2.72 0l1.76-1a.31.31 0 01.41 0 .7.7 0 01.18.54v3.41a1.68 1.68 0 01-.18.74 1 1 0 01-.41.51l-2.09 1.2a4.06 4.06 0 01-1.87.63 2 2 0 01-1.44-.49 3.35 3.35 0 01-.92-1.56 8.68 8.68 0 01-.33-2.59v-5.67l-1.62.93a.31.31 0 01-.42 0 .74.74 0 01-.17-.54v-3.41a1.85 1.85 0 01.17-.74 1.11 1.11 0 01.42-.51l1.62-.94v-5.5a1.68 1.68 0 01.18-.74 1.1 1.1 0 01.41-.51l2.77-1.59a.3.3 0 01.41 0 .73.73 0 01.18.54V152l2.48-1.43a.3.3 0 01.41 0 .73.73 0 01.18.54v3.41a1.72 1.72 0 01-.18.75 1.09 1.09 0 01-.41.51l-2.48 1.43zM263.78 156.66a1.88 1.88 0 00.22 1.07q.22.3.72 0l1.76-1a.31.31 0 01.41 0 .7.7 0 01.18.54v3.41a1.68 1.68 0 01-.18.74 1 1 0 01-.41.51l-2.08 1.2a4.13 4.13 0 01-1.88.63 2 2 0 01-1.44-.49 3.35 3.35 0 01-.92-1.56 9 9 0 01-.33-2.59v-5.67l-1.62.93a.29.29 0 01-.41 0 .7.7 0 01-.18-.54v-3.41a1.71 1.71 0 01.18-.74 1.09 1.09 0 01.41-.51l1.62-.94v-5.5a1.71 1.71 0 01.17-.74 1.11 1.11 0 01.42-.51l2.76-1.59a.32.32 0 01.42 0 .78.78 0 01.17.54V146l2.48-1.43a.31.31 0 01.42 0 .74.74 0 01.17.54v3.4a1.86 1.86 0 01-.17.75 1.16 1.16 0 01-.42.51l-2.48 1.43zM275.82 156.9a3.52 3.52 0 01-1.12.44 1.88 1.88 0 01-.83 0 1.43 1.43 0 01-.6-.31 3 3 0 01-.39-.43v7.19a1.71 1.71 0 01-.18.74 1 1 0 01-.41.51l-2.77 1.6a.31.31 0 01-.41 0 .69.69 0 01-.18-.53v-22.22a1.71 1.71 0 01.18-.74 1.1 1.1 0 01.41-.51l2.66-1.53a.31.31 0 01.41 0 .7.7 0 01.18.54v.77c.13-.3.27-.61.43-.95a5.5 5.5 0 01.57-1 5.94 5.94 0 01.83-.95 6 6 0 011.22-.89 4.17 4.17 0 011.86-.62 2 2 0 011.53.53 4.08 4.08 0 011.07 1.8 11.1 11.1 0 01.45 3.18v2.74a17.51 17.51 0 01-.45 3.7 14.55 14.55 0 01-1.07 3 9.73 9.73 0 01-1.53 2.32 7.78 7.78 0 01-1.86 1.62zm1-8.74a11.92 11.92 0 000-1.89 3.41 3.41 0 00-.5-1.77c-.29-.41-.78-.43-1.47 0a3 3 0 00-.83.72 3.9 3.9 0 00-.58 1 5.89 5.89 0 00-.37 1.07 8.08 8.08 0 00-.17 1.08v2.36a4.58 4.58 0 00.17.88 1.79 1.79 0 00.37.65.84.84 0 00.58.29 1.44 1.44 0 00.83-.25 3.27 3.27 0 001.47-1.72 7.53 7.53 0 00.48-2.42zM286.82 137.48a1.78 1.78 0 01-.17.74 1.11 1.11 0 01-.42.51l-2.87 1.66a.33.33 0 01-.42 0 .7.7 0 01-.17-.54v-4.45a1.66 1.66 0 01.17-.74 1.11 1.11 0 01.42-.51l2.87-1.66a.33.33 0 01.42 0 .74.74 0 01.17.54zm0 11.82a1.85 1.85 0 01-.17.74 1.11 1.11 0 01-.42.51l-2.87 1.66a.33.33 0 01-.42 0 .73.73 0 01-.17-.54v-4.43a1.69 1.69 0 01.17-.74 1.11 1.11 0 01.42-.51l2.87-1.66a.33.33 0 01.42 0 .78.78 0 01.17.54zM295.94 119.42a4.13 4.13 0 01.33-.88 1.59 1.59 0 01.64-.69l2.71-1.57a.27.27 0 01.34 0 .57.57 0 01.15.44 1.56 1.56 0 01-.05.33l-7.38 31.57a4.7 4.7 0 01-.31.85 1.64 1.64 0 01-.66.72l-2.71 1.57a.26.26 0 01-.34 0 .57.57 0 01-.15-.44 1.56 1.56 0 01.05-.33zM303.46 115.08a4.13 4.13 0 01.33-.88 1.59 1.59 0 01.64-.69l2.72-1.57a.26.26 0 01.34 0 .59.59 0 01.14.44 1.56 1.56 0 01-.05.33l-7.38 31.57a5 5 0 01-.31.85 1.64 1.64 0 01-.66.72l-2.67 1.54a.26.26 0 01-.34 0 .57.57 0 01-.15-.44 1.56 1.56 0 01.05-.33zM318 114.68c.22-.13.39-.13.51 0a1 1 0 01.24.4l1.62 6.73 1.62-8.6a4 4 0 01.24-.68 1.21 1.21 0 01.51-.56l2.72-1.57a.27.27 0 01.37 0 .66.66 0 01.15.48 1.46 1.46 0 010 .29l-3.49 17.64a3.51 3.51 0 01-.22.7 1.24 1.24 0 01-.5.56l-2.5 1.44c-.22.13-.38.13-.48 0a1.43 1.43 0 01-.24-.44l-1.56-6.18-1.55 8a3.75 3.75 0 01-.25.71 1.08 1.08 0 01-.48.55l-2.5 1.45c-.22.12-.38.13-.49 0a.93.93 0 01-.23-.44L308 121.55a2.28 2.28 0 010-.26 1.4 1.4 0 01.16-.66 1 1 0 01.37-.46l2.72-1.57c.22-.12.38-.13.5 0a.88.88 0 01.24.4l1.62 6.73 1.63-8.6a2.94 2.94 0 01.24-.68 1.19 1.19 0 01.5-.56zM336.94 103.72c.22-.13.39-.13.5 0a.83.83 0 01.24.4l1.63 6.72 1.62-8.59a2.65 2.65 0 01.24-.68 1.27 1.27 0 01.5-.57l2.72-1.56a.29.29 0 01.38 0 .66.66 0 01.15.48 2.64 2.64 0 010 .28l-3.49 17.64a2.93 2.93 0 01-.23.71 1.17 1.17 0 01-.49.56l-2.5 1.44c-.22.13-.38.13-.48 0a1.26 1.26 0 01-.25-.44l-1.55-6.19-1.56 8a5 5 0 01-.24.71 1.12 1.12 0 01-.48.55l-2.5 1.45c-.22.12-.39.13-.49 0a.93.93 0 01-.23-.44l-3.49-13.62a2 2 0 010-.25 1.59 1.59 0 01.15-.67 1.07 1.07 0 01.37-.45l2.72-1.57c.22-.12.39-.13.51 0a1 1 0 01.24.4l1.62 6.73 1.62-8.6a4 4 0 01.24-.68 1.26 1.26 0 01.51-.56zM355.92 92.76c.22-.13.39-.13.51 0a.86.86 0 01.24.4l1.62 6.72 1.62-8.6a3.3 3.3 0 01.25-.67 1.21 1.21 0 01.5-.57l2.72-1.57a.3.3 0 01.37 0 .68.68 0 01.15.49 1.37 1.37 0 010 .28l-3.48 17.64a3.45 3.45 0 01-.23.71 1.17 1.17 0 01-.5.55l-2.5 1.45c-.22.13-.38.13-.48 0a1.55 1.55 0 01-.24-.44l-1.58-6.15-1.55 8a5 5 0 01-.24.71 1.19 1.19 0 01-.49.55l-2.5 1.44c-.21.13-.38.14-.49 0a1.09 1.09 0 01-.23-.44l-3.48-13.62a1 1 0 010-.25 1.47 1.47 0 01.16-.67 1 1 0 01.37-.45l2.72-1.57c.22-.13.38-.13.5 0a.83.83 0 01.24.4l1.62 6.73 1.63-8.6a2.79 2.79 0 01.24-.68 1.19 1.19 0 01.5-.56zM368.75 102a1.72 1.72 0 01-.18.75 1.14 1.14 0 01-.41.51l-2.87 1.65a.32.32 0 01-.42 0 .73.73 0 01-.18-.54v-4.46a1.71 1.71 0 01.18-.74 1.05 1.05 0 01.42-.51l2.87-1.66a.31.31 0 01.41 0 .7.7 0 01.18.54z" fill="#455a64"/><g><path d="M207.44 137.15l-.08-.05-20-11.88-.11-.07c-8.81-5.32-20.57-4.48-33.21 3.78-25.41 16.59-44.77 56.82-43.24 89.86.76 16.47 6.56 28.05 15.34 33.46l.08.05 20 11.88.09.06c8.81 5.33 20.58 4.5 33.24-3.77 25.4-16.58 44.76-56.82 43.24-89.86-.79-16.47-6.57-28.04-15.35-33.46z" fill="#37474f"/><path d="M145.57 263.78L126.2 252.3l-.08-.07c-8.78-5.42-14.58-17-15.34-33.44-.68-14.74 2.8-30.89 9.1-45.74l.13-.33 19.88 12.21c-6.31 14.84-9.78 31-9.1 45.74.73 16.12 6.31 27.55 14.78 33.11z" fill="#263238"/><path d="M179.55 260.47c25.4-16.58 44.76-56.82 43.24-89.86s-23.36-46.39-48.76-29.8-44.77 56.83-43.24 89.87 23.35 46.38 48.76 29.79z" fill="#455a64"/><path d="M165.21 251.75a18.68 18.68 0 01-9.47-2.48c-8-4.6-12.59-15.15-12.59-29 0-25.39 15.43-55 34.4-66.06 8.62-5 17-5.66 23.73-1.82 8 4.6 12.59 15.16 12.59 29 0 25.38-15.43 55-34.4 66a28.61 28.61 0 01-14.26 4.36zm26.59-97.95a24.86 24.86 0 00-12.33 3.77C161.55 168 147 196.14 147 220.32c0 12.39 3.89 21.73 10.68 25.64 5.44 3.13 12.51 2.48 19.9-1.82 17.92-10.42 32.5-38.57 32.5-62.74 0-12.4-3.89-21.74-10.68-25.65a15 15 0 00-7.6-1.95z" fill="#2cbcb2"/><path d="M165.2 188.27a18.17 18.17 0 01-11.42-3.93l1.77-2.26c5.85 4.58 13.74 4.38 22.24-.56 8.8-5.12 17.07-14.61 23.29-26.71l2.55 1.31c-6.46 12.59-15.13 22.49-24.4 27.88a28.24 28.24 0 01-14.03 4.27zM155.94 246.9l-2.55-1.31c6.46-12.58 15.13-22.48 24.4-27.88 9.58-5.57 18.62-5.69 25.45-.34l-1.77 2.26c-5.85-4.58-13.74-4.38-22.24.56-8.8 5.12-17.07 14.61-23.29 26.71z" fill="#2cbcb2"/><path d="M174.81 248.33a7.66 7.66 0 01-3.88-1.08c-6.74-3.87-10.93-17.85-10.93-36.46 0-25.67 7.82-50.31 17.79-56.11a7.9 7.9 0 018.3-.22c6.74 3.88 10.93 17.85 10.93 36.46 0 25.67-7.82 50.31-17.79 56.12a8.86 8.86 0 01-4.42 1.29zm7.4-92.08a5.83 5.83 0 00-3 .91c-8.87 5.15-16.36 29.71-16.36 53.63 0 19.7 4.77 31.26 9.49 34a5.09 5.09 0 005.43-.21c8.87-5.16 16.36-29.72 16.36-53.64 0-19.7-4.77-31.26-9.49-34a4.87 4.87 0 00-2.43-.69z" fill="#2cbcb2"/><path fill="#2cbcb2" d="M177.08 155.92h2.87v89.88h-2.87z"/><path fill="#2cbcb2" d="M143.147 218.626l66.564-38.7 1.435 2.468-66.564 38.7z"/></g></g><g><path d="M412.59 137.48a3.11 3.11 0 00-1.19-1.39l-3-1.72c-1.29-.75-2.88 0-3.72.5l-1.86-1.07c-2.25-1.36-5.39 1.49-6.09 2.17l-.81-.46c-1.06-.64-2.5-.24-3.79.41v-10.83a2.73 2.73 0 00-1.06-2.44h-.05l-2.93-1.7a2.72 2.72 0 00-2.68.28 8.46 8.46 0 00-3.82 6.63V161a4.69 4.69 0 00-.46-.21c-2.61-1.85-5.36-2.94-7.78-2.51a8.26 8.26 0 00-5 3.44c-1.26 2.23.82 3.63 3.51 6.7s5 6.72 7.45 9a13.18 13.18 0 004.19 2.85v4.34l2.95 1.71 22.48-13V169s2.79-11.12 3.68-15.77 1.7-12.18-.02-15.75z" fill="#2cbcb2"/><path d="M412.59 137.48a3.11 3.11 0 00-1.19-1.39l-3-1.72c-1.29-.75-2.88 0-3.72.5l-1.86-1.07c-2.25-1.36-5.39 1.49-6.09 2.17l-.81-.46c-1.06-.64-2.5-.24-3.79.41v-10.83a2.73 2.73 0 00-1.06-2.44h-.05l-2.93-1.7a2.72 2.72 0 00-2.68.28 8.46 8.46 0 00-3.82 6.63V161a4.69 4.69 0 00-.46-.21c-2.61-1.85-5.36-2.94-7.78-2.51a8.26 8.26 0 00-5 3.44c-1.26 2.23.82 3.63 3.51 6.7s5 6.72 7.45 9a13.18 13.18 0 004.19 2.85v4.34l2.95 1.71 22.48-13V169s2.79-11.12 3.68-15.77 1.7-12.18-.02-15.75z" fill="#fff" opacity=".8"/><path d="M392.16 136v3.67a16.16 16.16 0 012.89-2zm13.58-1.6a6.58 6.58 0 00-1 .51l1 .56a3.33 3.33 0 011.41 1.55 7 7 0 011.7-1zm-7 0a12.69 12.69 0 00-2 1.58l1.94 1.13a.41.41 0 01.11.07 2.2 2.2 0 01.76.65 12.66 12.66 0 012.07-1.68zm-17.19-6.59V161a18.68 18.68 0 012.95 1.82v-33.31zm10.59 8.19zm-9.9 43.15c-2.43-2.26-4.78-5.93-7.44-9-2.52-2.89-4.53-4.3-3.7-6.31l-3-1.71c-.82 2 1.17 3.42 3.7 6.32s5 6.71 7.44 9a13.31 13.31 0 004.19 2.85v4.35l3 1.7V182a13.13 13.13 0 01-4.19-2.89z" fill="#2cbcb2" opacity=".2"/><path d="M392.16 136v3.67a16.16 16.16 0 012.89-2zm13.58-1.6a6.58 6.58 0 00-1 .51l1 .56a3.33 3.33 0 011.41 1.55 7 7 0 011.7-1zm-7 0a12.69 12.69 0 00-2 1.58l1.94 1.13a.41.41 0 01.11.07 2.2 2.2 0 01.76.65 12.66 12.66 0 012.07-1.68zm-17.19-6.59V161a18.68 18.68 0 012.95 1.82v-33.31zm10.59 8.19zm-9.9 43.15c-2.43-2.26-4.78-5.93-7.44-9-2.52-2.89-4.53-4.3-3.7-6.31l-3-1.71c-.82 2 1.17 3.42 3.7 6.32s5 6.71 7.44 9a13.31 13.31 0 004.19 2.85v4.35l3 1.7V182a13.13 13.13 0 01-4.19-2.89z" opacity=".1"/><path d="M386.43 186.31V182a13.13 13.13 0 01-4.19-2.86c-2.43-2.26-4.78-5.93-7.44-9s-4.78-4.47-3.51-6.71a8.27 8.27 0 015-3.43c2.57-.46 5.49.79 8.24 2.83v-33.32a8.46 8.46 0 013.83-6.62c2.11-1.22 3.82-.23 3.82 2.2v14.55s5.28-4.68 7.41-1.81c0 0 5.18-5.42 7.51-.84 0 0 3.81-3.07 5.52.49s.89 11.09 0 15.74-3.71 15.78-3.71 15.78v4.34z" fill="#2cbcb2"/><path d="M386.43 186.31V182a13.13 13.13 0 01-4.19-2.86c-2.43-2.26-4.78-5.93-7.44-9s-4.78-4.47-3.51-6.71a8.27 8.27 0 015-3.43c2.57-.46 5.49.79 8.24 2.83v-33.32a8.46 8.46 0 013.83-6.62c2.11-1.22 3.82-.23 3.82 2.2v14.55s5.28-4.68 7.41-1.81c0 0 5.18-5.42 7.51-.84 0 0 3.81-3.07 5.52.49s.89 11.09 0 15.74-3.71 15.78-3.71 15.78v4.34z" fill="#fff" opacity=".65"/><g opacity=".1"><path d="M392.15 145.89s.48-6.64 2.92-8.22h-.08a16 16 0 00-2.84 1.94v-.12a.19.19 0 000 .12zM399.56 137.83v6.07s.67-6.24 2.07-7.75a12.56 12.56 0 00-2.07 1.68zM407.07 137v6.09s.38-6.14 1.7-7a7.24 7.24 0 00-1.7.91z"/></g></g><g><path d="M336.53 311.4c-17.27 8.61-25.11 17.65-16.17 24s33.27 14.92 33.27 14.92l3.19 10.68 35.34-20.41v-12.11s-21.81-15-30.32-17.94-15.19-4.18-25.31.86z" opacity=".15"/><path d="M385.26 366.13s-5.33 13.09-5.61 18.25c-.28 5.37-1.58 7.16-.67 13 .2 1.27.87 3.82 1 4.86a1.52 1.52 0 01-1.38 1.9c-2.34.49-6.21-3.9-8.06-8.67a142 142 0 01-4.54-16.8 7.36 7.36 0 01.74-3.77 11.29 11.29 0 011.07-1.95c.77-2.34 1.14-6.79 1.79-9.87z" fill="#ffa8a7"/><path d="M361.4 383.57a5.6 5.6 0 00-.63 1.76c0 1.07 2.37 4.61 3.32 5.89a8.63 8.63 0 011.75 6.12c-.14 3.43 1.38 6.74 3.59 9.57a23.69 23.69 0 0011.73 7.68c5.67 1.74 7.67-1.1 7.67-1.1s1.75-2.73.7-3.85-28.13-26.07-28.13-26.07z" fill="#263238"/><path d="M367.77 373c-.17 0-.48-.05-.92.48-.17.2-1.2 2.75-2.06 4.09s-3.11 3.88-3.39 6.05c1.31 4.2 5.25 7.12 5.84 11.09s.66 8.56 6.75 13.42 12.36 5.35 14.61 4.06 2-3.69-1.09-8.29c-3.33-4.87-5.58-15.44-5.58-15.45a35.59 35.59 0 01-.59-4.49 30.58 30.58 0 01.42-4.45 3.26 3.26 0 00-.28-2 3.41 3.41 0 00-1.68-1.16 14.44 14.44 0 00-3.13-1.06 5 5 0 00-3.22.39 22.81 22.81 0 01-2 1.28 2.87 2.87 0 01-3-.53 2.47 2.47 0 01-.81-2.75 6.6 6.6 0 01.13-.68z" fill="#455a64"/><path d="M370.43 404.19a9.69 9.69 0 018.83-4.78c6.47 0 8.71 3.32 9.69 5.25 1.18 2.31 2.4 6.49-.27 7.69-2.89 1.29-6.23.89-11.48-1.74s-6.77-6.42-6.77-6.42zM371.61 384.7a.68.68 0 00.59 0c1-.51 6.29-1.61 9.37 1.24.39-.32.31-.9-.2-1.72-3.6-2.29-8.61-1.27-9.81-.66a.61.61 0 00-.25.86.65.65 0 00.3.28zM382.23 389.71a2 2 0 00-.37-1.78 12.12 12.12 0 00-9.37-.38.63.63 0 00-.25.86.7.7 0 00.31.28.65.65 0 00.59 0c.97-.49 5.98-1.54 9.09 1.02zM384.87 398.45a3.67 3.67 0 00-.83-2.34c-3.59-2.17-8.48-1.17-9.67-.56a.62.62 0 00-.25.86.68.68 0 00.89.28c1.06-.54 6.89-1.69 9.86 1.76zM373.48 392.69a.68.68 0 00.59 0c1-.51 6.17-1.58 9.27 1.15a2.26 2.26 0 00-.54-1.91 12.12 12.12 0 00-9.37-.38.63.63 0 00-.25.86.67.67 0 00.3.28z" fill="#fafafa"/><path d="M391 382.2s2.65 16 5.59 22.15 4.46 9.18 8.51 13.87c.88 1 2.89 2.91 3.61 3.74a1.6 1.6 0 01-.17 2.46c-1.8 1.72-9.44 2.13-13.72-1.08s-8.18-10-10.74-12.63c-1-1-1.86-2-2.72-3s-.6-2-.67-3.12v-2.05c-.59-2.69-2.17-6.9-3-9.52z" fill="#ffa8a7"/><path d="M379.23 414.58a5.71 5.71 0 00.2 1.95c.42 1 4.29 3.3 5.77 4.09a9.06 9.06 0 014.38 5c1.41 3.31 4.32 5.76 7.68 7.45a24.71 24.71 0 0014.53 2c6.14-.88 6.76-4.46 6.76-4.46s.45-3.37-1.05-4-38.27-12.03-38.27-12.03z" fill="#263238"/><path d="M380.52 401.69c-.16.07-.47.16-.66.86-.06.27.1 3.14-.12 4.79s-1.21 5.05-.51 7.24c3.12 3.39 8.15 4.39 10.48 7.88s4.45 7.81 12.39 9.68 14.08-.45 15.64-2.67.28-4.41-4.74-7.36C407.67 419 400.83 410 400.82 410a37.59 37.59 0 01-2.56-4 30.21 30.21 0 01-1.59-4.39 3.43 3.43 0 00-1.17-1.78 3.5 3.5 0 00-2.1-.35 15.25 15.25 0 00-3.44.39 5.24 5.24 0 00-2.88 1.81 22.91 22.91 0 01-1.33 2.12 3 3 0 01-3.07.83 2.58 2.58 0 01-2-2.24 6.3 6.3 0 01-.16-.7z" fill="#455a64"/><path d="M397 430.05a10.16 10.16 0 016.22-8.46c6.14-2.87 9.73-.75 11.52.64 2.14 1.66 5.16 5.07 3.17 7.4-2.15 2.51-5.49 3.62-11.64 3.48s-9.27-3.06-9.27-3.06zM389.4 411.08a.7.7 0 00.56-.26c.71-.93 5.22-4.34 9.41-3 .24-.48-.1-1-.95-1.55-4.43-.56-8.71 2.65-9.58 3.77a.63.63 0 00.15.92.67.67 0 00.41.12zM401.69 411.08a2.14 2.14 0 00-1.15-1.52c-4.22-.23-8.19 2.76-9 3.83a.65.65 0 00.15.93.69.69 0 00.41.13.71.71 0 00.56-.27c.67-.9 4.95-4.13 9.03-3.1zM408.09 418.17a3.83 3.83 0 00-1.83-1.84c-4.36-.45-8.54 2.68-9.4 3.79a.65.65 0 00.15.93.76.76 0 00.41.13.71.71 0 00.56-.27c.76-.98 5.74-4.72 10.11-2.74zM394.75 417.81a.69.69 0 00.55-.26c.71-.92 5.13-4.26 9.28-3.05a2.36 2.36 0 00-1.36-1.57 12.62 12.62 0 00-9 3.83.64.64 0 00.14.92.72.72 0 00.39.13z" fill="#fafafa"/><path d="M355.8 291.32c6.54 4.79 29.33 17.95 38.58 26.51 2.68 2.48 3.56 5.73 2.9 12.83-.89 9.64-8.46 42.47-8.46 42.47-1.05 1.85-2.88-1.66-2.88-1.66l-36.11-45.84z" fill="#2cbcb2"/><path d="M355.8 291.32c6.54 4.79 29.33 17.95 38.58 26.51 2.68 2.48 3.56 5.73 2.9 12.83-.89 9.64-8.46 42.47-8.46 42.47-1.05 1.85-2.88-1.66-2.88-1.66l-36.11-45.84z" opacity=".3"/><path d="M387.25 362.91c-8.35-7-35.34-49.57-35.34-49.57 3.68-3.1 5.57-13.87 5.57-13.87 1.46 4.15-.08 10.42-1.21 12.71 2.12 1.84 14.13 11.71 22.47 18.31a12 12 0 014.96 7.51c1.72 9 3.75 23.08 3.55 24.91z" opacity=".3"/><path d="M355.8 291.32l-46.48 10.29c2.27 8.53 2.92 12.94 5.29 17.43s5 9.31 17.1 15.27c11.64 5.73 25.85 11.63 28.7 13 2.14 1 3.16 5.31 4.13 10.87 1 5.82 1.11 10.39 6.88 22.62 5.64 12 6.8 14.56 6.8 14.56s8.73.91 14.53-4.19c0 0-7.91-41.07-9.6-48.46-.94-4.13-1-6.3-6.09-10.84-4.39-3.89-24-18.75-24-18.75s7.77-10.49 2.74-21.8z" fill="#2cbcb2"/><path d="M355.8 291.32l-46.48 10.29c2.27 8.53 2.92 12.94 5.29 17.43s5 9.31 17.1 15.27c11.64 5.73 25.85 11.63 28.7 13 2.14 1 3.16 5.31 4.13 10.87 1 5.82 1.11 10.39 6.88 22.62 5.64 12 6.8 14.56 6.8 14.56s8.73.91 14.53-4.19c0 0-7.91-41.07-9.6-48.46-.94-4.13-1-6.3-6.09-10.84-4.39-3.89-24-18.75-24-18.75s7.77-10.49 2.74-21.8z" opacity=".3"/><path d="M409.23 214.1a4.55 4.55 0 00-2.31.47 15 15 0 00-2.35 1.53c-1.16.86-2.34 1.66-3.56 2.43a9.9 9.9 0 01-3.5 1.66c-.43.07-1.35.08-.88-.57a17.49 17.49 0 001.75-2.61 3.73 3.73 0 00.26-3 1.3 1.3 0 00-.59-.71c-.41-.19-.62 0-.85.3a10 10 0 01-.82.77c-.58.51-1.16 1-1.73 1.54-3.35 3-7.42 5.67-8.85 10.06a27.44 27.44 0 00-1.18 8.35c0 4.82-.32 21.59-.32 21.59s-13.32-11.21-19.09-16c-2.79-2.33-6.68-5.16-11-5.57-3-.28-4.81-.27-4.81-.27l9.09 22s17.17 12.78 25.41 17.18c7.43 4 11.05 1.11 11.95-1 1.49-3.46 3-5.08.92-24.36-.15-1.49-.34-5.76-.51-7.25-.21-3.11.14-6.27 1.35-6.95a36.93 36.93 0 006.3-4.27 18.88 18.88 0 003.33-3.75 5.73 5.73 0 001.14-2.15 10.88 10.88 0 010-2.21c.15-.48.48-.88.6-1.4.25-1.07.16-2.29.83-3.21.38-.5 1-1 .91-1.58a1.3 1.3 0 00-1.07-.93 3.25 3.25 0 00-.42-.09z" fill="#ffa8a7"/><path d="M395.64 222.47a14 14 0 01-3.47 6.94 8.19 8.19 0 002.95-3c.96-1.98.88-2.99.52-3.94z" fill="#f28f8f"/><path d="M348.51 233.56c4.64.2 8.25.3 12.21 2.59s21.6 17.06 21.6 17.06.18-7.53.63-11.49c.31-2.75.77-3.61 1.63-3.48 0 0 1.53 2.35 5.86 2.68s5.8-1.48 5.8-1.48 1.27-.3 1.72 1.48 1.27 21 .48 26.53-3.27 8.11-6.6 8.89-11-3.89-20.29-10.11-19.31-12-19.31-12z" fill="#2cbcb2"/><path d="M348.51 233.56c4.64.2 8.25.3 12.21 2.59s21.6 17.06 21.6 17.06.18-7.53.63-11.49c.31-2.75.77-3.61 1.63-3.48 0 0 1.53 2.35 5.86 2.68s5.8-1.48 5.8-1.48 1.27-.3 1.72 1.48 1.27 21 .48 26.53-3.27 8.11-6.6 8.89-11-3.89-20.29-10.11-19.31-12-19.31-12z" fill="#fff" opacity=".7"/><path d="M382.32 253.21a36.43 36.43 0 00.39 10.78s-3.39-6.54-2.35-12.53z" opacity=".1"/><path d="M310.4 237.62c-.77 4-8.46 42.55.29 71.26 15.77 1.86 43.45-5.38 47.6-15.81 0 0-2.79-9.9-4-14.75.26-7.94 0-23.1-.16-27.79-.32-9.29-1.77-16.48-6.38-17.16 0 0-9.26-.36-14.86-.13-4.84.19-8.48.25-8.48.25z" fill="#fafafa"/><path d="M333.55 298.81c-1-2.26-19.73-13.81-19.73-13.81s.29-5.35 1.4-15.2 1.45-21.65-2.1-27.58l-3.58.14c-2 11.95-6.14 42.61 1.15 66.52 8.41 1 20.2-.61 30-3.89-1.8-1.22-6.33-4.38-7.14-6.18z" fill="#f0f0f0"/><path d="M322.78 224.45c0-2-3.79-7.94-5.52-12.65-2.89-7.87-3.14-14.94 4-18 0 0 4.46-7.69 15.71-8.08s19.88 9.11 16.15 21.8z" fill="#455a64"/><path d="M325.56 212.29c-1.47 0-2-2.11-3-3.24a4.35 4.35 0 00-6.72.84c-2.08 3-.06 7.34 2.21 9 2.85 2.12 4.82.08 4.82.08l-.26 15.89s.51 3.52 7 5.57c7.5 2.36 13.6-1.59 9.13-6.53l.17-4.19a21.5 21.5 0 007.25.4c2.5-.38 4.5-2.26 5.78-6.12 2.51-7.52 1.82-17.56-.77-26.72-2.48 2-13.92 5.63-24.23 2 .35 6.33.06 13.02-1.38 13.02z" fill="#ffa8a7"/><path d="M321.48 217.2a.93.93 0 11-.93-.93.93.93 0 01.93.93z" fill="#263238"/><path d="M338.9 229.72s-6.26-1.83-8.72-3.56a12 12 0 01-3.84-4.37 16.16 16.16 0 002.64 5.29c3 3.39 9.84 5 9.84 5z" fill="#f28f8f"/><path d="M338.4 212.21a1.56 1.56 0 11-1.59-1.6 1.59 1.59 0 011.59 1.6zM336.69 206.89l-3.36 1.78a2 2 0 01.83-2.64 1.85 1.85 0 012.53.86z" fill="#263238"/><path d="M337.91 220.39l5.35 1.71a3 3 0 01-3.63 1.86 2.74 2.74 0 01-1.72-3.57z" fill="#f28f8f"/><path d="M351.1 206.83l-3.69-1a1.84 1.84 0 012.29-1.37 2 2 0 011.4 2.37zM350.15 211a1.56 1.56 0 11-1.59-1.6 1.59 1.59 0 011.59 1.6z" fill="#263238"/><path d="M351.87 197.28c3.46-2.46 5.38-5.76 4.46-10.29-1.35 1.35-5.13 1.6-8.43 0a25.91 25.91 0 00-17-2.46c-6.11 1.19-9.69 5.83-9.69 9.25 1.2 2.44 2.84 3.74 5.68 5.47a22.65 22.65 0 0014.74 4.24 14.55 14.55 0 008.68-3.14s-3.19.28-4.69-.71a16.52 16.52 0 006.25-2.36z" fill="#37474f"/><path fill="#f28f8f" d="M343.45 218.41l4.77-2.18-6.09-8.41 1.32 10.59z"/><path d="M395.83 319.53a9.55 9.55 0 00-1.44-1.7c-5.56-5.14-16-11.94-24.87-17.59l-40.36 23.3a.37.37 0 000 .64l29.31 16.93z" opacity=".15"/><path d="M408.07 307.69v.65a2.68 2.68 0 01-1.34 2.32l-46.92 27.09a2.67 2.67 0 01-1.34.36 2.73 2.73 0 01-1.35-.36L331.55 323a2.7 2.7 0 01-1.34-2.32v-.91a.33.33 0 00.17.3l28.08 16.22z" fill="#37474f"/><path d="M358.47 336.32v1.79a2.67 2.67 0 001.34-.36l46.92-27.09a2.68 2.68 0 001.34-2.32v-.66z" fill="#263238"/><path d="M408.07 307.68l-27.82-16.06a1.63 1.63 0 00-1.6 0l-48.26 27.87a.36.36 0 000 .62l28.08 16.21z" fill="#455a64"/><path fill="#37474f" d="M358.21 333.96l-15-8.65 43.88-25.33 15.08 8.6-43.96 25.38z"/><path fill="#263238" d="M402.17 308.58l-.57.33-14.52-8.28-43.3 25.01-.57-.33 43.87-25.34 15.09 8.61zM350.84 309.89l.28.16 7.35 4.24 13.08-7.55.27-.16-7.63-4.4-13.35 7.71z"/><path fill="#37474f" d="M351.12 310.05l7.35 4.24 13.08-7.55-7.36-4.24-13.07 7.55z"/><path d="M365.07 315.14c-2.1-2.08-5.15-5-7.72-5.83a16.76 16.76 0 00-1.8-.56 19.72 19.72 0 002.63-.52 4.68 4.68 0 002.23-1.48c.22-.29.38-.75.1-1a.59.59 0 00-.36-.13c-1.93-.06-3.44-.36-5.19-.48a7.12 7.12 0 00-2.35 0c-.72.19-1.43.4-2.13.65-3.19 1.1-6.1 2.09-10.61 1l-8.12-4.33s-1.74-.44-4.3 3.89-1.06 6.71-1.06 6.71l9.12 3.15.13.05a30.4 30.4 0 004.31 1.9c2.84.87 6.48-.16 8.95-.29s6.66 1 9 1.94 5-2.6 6.19-2.18 3.09-.4.98-2.49z" fill="#ffa8a7"/><path d="M354.48 307.39a8.56 8.56 0 00-3.48.61 19 19 0 014.56.79 19.72 19.72 0 002.63-.52 4.94 4.94 0 002-1.24c-1.37.9-4.04.53-5.71.36z" fill="#f28f8f"/><path d="M310.4 237.62c2.31.91 5.32 10.55 3.46 19.82l-4.3 29s5.27 3.12 12.67 7.7c5.12 3.18 9.51 6.09 9.52 8.44-3.36 1.2-6.38 7.38-5.36 10.6-2.29 2.72-23.45-9-30.85-14.07-3.43-2.35-5.16-3.27-3.84-13.86 1.46-11.72 2.46-24.74 4.75-33.43 2.38-9.09 5.03-12.61 13.95-14.2z" fill="#2cbcb2"/><path d="M310.4 237.62c2.31.91 5.32 10.55 3.46 19.82l-4.3 29s5.27 3.12 12.67 7.7c5.12 3.18 9.51 6.09 9.52 8.44-3.36 1.2-6.38 7.38-5.36 10.6-2.29 2.72-23.45-9-30.85-14.07-3.43-2.35-5.16-3.27-3.84-13.86 1.46-11.72 2.46-24.74 4.75-33.43 2.38-9.09 5.03-12.61 13.95-14.2z" fill="#fff" opacity=".7"/><path d="M359.23 336.72a3.16 3.16 0 002.73-.21l46.72-27a3.17 3.17 0 001.54-2.22l5.12-30.5a3.12 3.12 0 000-.52 3.16 3.16 0 00-.94-2.26l-48.54 28a2.35 2.35 0 00-1.15 1.64z" fill="#37474f"/><path d="M358.47 336.32l.32.19a3.55 3.55 0 00.44.21l5.52-33a2.35 2.35 0 011.15-1.64l48.54-28a3.21 3.21 0 00-.65-.5l-48.64 28.09a2.31 2.31 0 00-1.14 1.64z" fill="#455a64"/><path d="M365.21 302.69l-.76-.43a2.3 2.3 0 00-.44 1l-5.54 33.05.32.19a3.55 3.55 0 00.44.21l5.52-33a2.42 2.42 0 01.46-1.02z" fill="#263238"/><path d="M385.54 308.56c.34-2 2.45-4.75 4.71-6.05s3.81-.71 3.46 1.33-2.45 4.76-4.7 6.06-3.82.71-3.47-1.34z" fill="#2cbcb2"/></g></svg>