<svg xmlns="http://www.w3.org/2000/svg" viewBox="0 0 406.26172 50.02002"><path d="M37.21875,270.38721l7.84033-49.3501h9.52l10.98975,38.57031H63.3291l23.23975-38.57031h9.52L88.249,270.38721H78.37891l5.31982-33.46h2.87012l-20.79,33.46H59.61865l-10.1499-33.46h2.87012l-5.25,33.46Z" transform="translate(-37.21875 -221.03711)" fill="#2cbcb2"/><path d="M114.57324,271.05713a13.08935,13.08935,0,0,1-7.873-2.34473,12.46909,12.46909,0,0,1-4.58936-6.5664,21.5476,21.5476,0,0,1-.46924-9.84864q1.33961-8.24121,6.09717-12.395a16.64465,16.64465,0,0,1,11.32275-4.15429,12.494,12.494,0,0,1,7.002,1.90966,7.404,7.404,0,0,1,3.45117,5.12549l-.60352.26807,1.875-6.56592h9.64844q-.60351,2.14453-1.10547,4.355-.501,2.21045-.83789,4.42188l-3.95312,25.125H124.48926l1.07226-6.7002h1.07032a12.23754,12.23754,0,0,1-4.6211,5.39356A13.50136,13.50136,0,0,1,114.57324,271.05713Zm3.48438-7.5708a8.07646,8.07646,0,0,0,5.89453-2.37842q2.41406-2.37744,3.2168-7.26953.87011-5.49317-.9375-8.00684a6.25273,6.25273,0,0,0-5.42774-2.5122,7.999,7.999,0,0,0-5.82812,2.37841q-2.41407,2.37891-3.2168,7.26954-.87012,5.49462.9375,8.00634A6.18083,6.18083,0,0,0,118.05762,263.48633Z" transform="translate(-37.21875 -221.03711)" fill="#2cbcb2"/><path d="M145.39551,270.38721l7.48828-47.104h9.66406l-4.48047,28.16016h.12793l13.82422-13.43994h11.9043l-17.98438,17.21582-.06347-3.584,13.75976,18.752H168.17969l-10.6875-14.08008h-.12891l-2.30371,14.08008Z" transform="translate(-37.21875 -221.03711)" fill="#2cbcb2"/><path d="M201.15918,270.99707a18.48573,18.48573,0,0,1-9.36328-2.16553,11.81085,11.81085,0,0,1-5.27637-6.06933,17.26911,17.26911,0,0,1-.73144-9.02783,19.285,19.285,0,0,1,2.98828-7.89991,15.591,15.591,0,0,1,5.76465-5.15429,17.22433,17.22433,0,0,1,8.083-1.83008,13.25727,13.25727,0,0,1,7.56348,2.01318,10.89438,10.89438,0,0,1,4.23926,5.45947,15.55262,15.55262,0,0,1,.458,8.02149l-.24415,2.07373H193.04688l.60937-4.63574h14.94531l-1.09765,1.09814q.54932-3.9646-.793-5.917a5.0145,5.0145,0,0,0-4.45313-1.95215,6.79218,6.79218,0,0,0-3.7207,1.00635,7.4994,7.4994,0,0,0-2.5625,2.77539,11.41346,11.41346,0,0,0-1.28125,4.02637l-.36524,2.31787q-.61083,4.33227,1.3418,6.64892,1.95117,2.31885,6.71,2.31787a14.90843,14.90843,0,0,0,4.36133-.64013,16.50322,16.50322,0,0,0,4.23926-2.04346L213.4209,267.52a18.4575,18.4575,0,0,1-5.7041,2.62305A24.89173,24.89173,0,0,1,201.15918,270.99707Z" transform="translate(-37.21875 -221.03711)" fill="#2cbcb2"/><path d="M239.77246,270.38721l6.16016-38.77491h8.58008l-6.16016,38.77491Z" transform="translate(-37.21875 -221.03711)" fill="#d44e28"/><path d="M270.22949,270.90723q-5.30419,0-7.48828-2.65186-2.18408-2.65211-1.45605-7.644l1.71582-10.76416h-4.99219l.98828-5.772h4.99219l.98828-6.5,8.16406-1.92383-1.30078,8.42383h6.708l-.88379,5.772h-6.81152l-1.61231,10.3999q-.36474,2.44482.57227,3.40625a3.45772,3.45772,0,0,0,2.59961.96191,6.63989,6.63989,0,0,0,1.53418-.15625q.64891-.156,1.42968-.416l-.9873,6.13623a10.3192,10.3192,0,0,1-2.13281.57178A13.66208,13.66208,0,0,1,270.22949,270.90723Z" transform="translate(-37.21875 -221.03711)" fill="#d44e28"/><path d="M308.67773,270.84717a27.10759,27.10759,0,0,1-6.94628-.85108,18.99588,18.99588,0,0,1-5.38184-2.231l2.3916-5.61182a22.55776,22.55776,0,0,0,4.78418,1.978,20.1803,20.1803,0,0,0,5.7041.78174,9.33768,9.33768,0,0,0,4.89942-.98877,3.607,3.607,0,0,0,1.7705-2.55323,2.70784,2.70784,0,0,0-.55175-2.32275,4.87292,4.87292,0,0,0-2.99024-1.21924l-5.05957-.82812a10.15158,10.15158,0,0,1-6.32519-3.24268,7.72392,7.72392,0,0,1-1.49512-6.417,10.475,10.475,0,0,1,2.415-5.24414,12.34176,12.34176,0,0,1,5.01367-3.40381,19.81437,19.81437,0,0,1,7.15332-1.19629,22.44977,22.44977,0,0,1,6.00293.78223,11.53293,11.53293,0,0,1,4.53125,2.2539l-2.43848,5.42823a13.38846,13.38846,0,0,0-3.81738-1.84034,16.80784,16.80784,0,0,0-5.01465-.68994,9.7526,9.7526,0,0,0-4.78418.98926,3.656,3.656,0,0,0-1.97754,2.82861,2.795,2.795,0,0,0,.5293,2.415,4.92514,4.92514,0,0,0,3.10449,1.35694l5.01367.82812q4.36964.68994,6.3711,3.105a7.6626,7.6626,0,0,1,1.40332,6.3252,9.7134,9.7134,0,0,1-2.27735,4.94482,12.32594,12.32594,0,0,1-4.89843,3.4043A19.08678,19.08678,0,0,1,308.67773,270.84717Z" transform="translate(-37.21875 -221.03711)" fill="#242021"/><path d="M328.11816,270.38721l5.03028-31.64795h6.49316l-2.19238,13.9751h-.68848a8.53194,8.53194,0,0,1,3.41895-3.41846,9.81988,9.81988,0,0,1,4.708-1.13965q3.95654,0,5.56835,2.32178,1.6128,2.32251.88184,7.09521l-2.02148,12.814h-6.49219l2.02051-12.814a4.64247,4.64247,0,0,0-.40821-3.37549,2.88309,2.88309,0,0,0-2.47265-1.01074,4.99229,4.99229,0,0,0-3.59082,1.333,6.24262,6.24262,0,0,0-1.78418,3.56934l-1.97754,12.29785Z" transform="translate(-37.21875 -221.03711)" fill="#242021"/><path d="M366.25293,270.78711a11.24886,11.24886,0,0,1-5.74023-1.33984,7.2746,7.2746,0,0,1-3.23926-3.85987,12.00142,12.00142,0,0,1-.4209-6,12.31862,12.31862,0,0,1,2.14062-5.44043,10.29133,10.29133,0,0,1,4.08008-3.31982,13.12907,13.12907,0,0,1,5.5-1.12012,11.11917,11.11917,0,0,1,5.73926,1.34033,7.326,7.326,0,0,1,3.2002,3.85987,11.7394,11.7394,0,0,1,.37988,6,12.311,12.311,0,0,1-2.13965,5.43994,10.34726,10.34726,0,0,1-4.04,3.31982A12.85388,12.85388,0,0,1,366.25293,270.78711Zm.32031-4.52a4.66254,4.66254,0,0,0,3.41992-1.41992,7.77049,7.77049,0,0,0,1.89942-4.33985q.52-3.27978-.54-4.78027a3.63614,3.63614,0,0,0-3.17969-1.5,4.57994,4.57994,0,0,0-3.41992,1.41992,7.95728,7.95728,0,0,0-1.86035,4.34033q-.52,3.28053.5,4.77979A3.57668,3.57668,0,0,0,366.57324,266.26709Z" transform="translate(-37.21875 -221.03711)" fill="#242021"/><path d="M381.83008,270.38721l2.18262-13.76416q.18456-1.25683.333-2.51563.148-1.25757.18457-2.44238h5.40235l-.25879,5.40234-.92481.03662a10.35854,10.35854,0,0,1,1.71973-3.293,6.77078,6.77078,0,0,1,2.42383-1.92383,7.008,7.008,0,0,1,2.96-.62891,8.79409,8.79409,0,0,1,.999.05518q.48048.05567.8877.12988l-.81348,4.958a5.84853,5.84853,0,0,0-1.23926-.38867,8.253,8.253,0,0,0-1.35058-.09229,5.35092,5.35092,0,0,0-2.46094.57324,4.91984,4.91984,0,0,0-1.88672,1.72071,7.38325,7.38325,0,0,0-1.05469,2.812l-1.44238,9.36084Z" transform="translate(-37.21875 -221.03711)" fill="#242021"/><path d="M406.61328,270.72705q-3.46875,0-4.89648-1.73389-1.42677-1.73364-.95118-4.998l1.12208-7.03809h-3.26465l.64648-3.77392h3.26367l.64649-4.25,5.33789-1.25782-.85059,5.50782h4.38672l-.57812,3.77392h-4.45411l-1.05468,6.80029a2.607,2.607,0,0,0,.374,2.22706,2.26211,2.26211,0,0,0,1.7002.6289,4.34161,4.34161,0,0,0,1.00293-.102q.4248-.10181.93554-.272L409.333,270.251a6.71416,6.71416,0,0,1-1.39356.374A8.89661,8.89661,0,0,1,406.61328,270.72705Z" transform="translate(-37.21875 -221.03711)" fill="#242021"/><path d="M421.61523,270.69727a9.39188,9.39188,0,0,1-4.75781-1.10059,5.997,5.997,0,0,1-2.68164-3.08447,8.76059,8.76059,0,0,1-.37207-4.58789,9.805,9.805,0,0,1,1.51856-4.01465A7.929,7.929,0,0,1,418.252,255.29a8.75745,8.75745,0,0,1,4.10743-.92969,6.7371,6.7371,0,0,1,3.84374,1.02295,5.53653,5.53653,0,0,1,2.15528,2.77441,7.91946,7.91946,0,0,1,.23242,4.07667l-.124,1.05371H417.49219l.31054-2.356h7.59473l-.55762.5581a4.28531,4.28531,0,0,0-.40332-3.00683,2.54855,2.54855,0,0,0-2.26269-.99219,3.45167,3.45167,0,0,0-1.8916.51172,3.81065,3.81065,0,0,0-1.30176,1.41016,5.80562,5.80562,0,0,0-.65137,2.04589l-.18555,1.17823a4.15872,4.15872,0,0,0,.68165,3.3789,4.25078,4.25078,0,0,0,3.41015,1.17823,7.56221,7.56221,0,0,0,2.2168-.32569,8.37643,8.37643,0,0,0,2.1543-1.03857l1.24023,3.1001a9.39374,9.39374,0,0,1-2.89844,1.333A12.66431,12.66431,0,0,1,421.61523,270.69727Z" transform="translate(-37.21875 -221.03711)" fill="#242021"/><path d="M431.44043,270.38721l1.65234-10.416q.13917-.95142.252-1.90381.11133-.95214.13965-1.84814h4.08789l-.19532,4.08789-.70019.02832a7.83014,7.83014,0,0,1,1.30176-2.49219,5.12077,5.12077,0,0,1,1.834-1.45605,5.29947,5.29947,0,0,1,2.24023-.47608,6.64525,6.64525,0,0,1,.75586.042c.24219.02833.4668.061.67188.09815l-.61621,3.752a4.407,4.407,0,0,0-.9375-.29394,6.2245,6.2245,0,0,0-1.02246-.07032,4.04843,4.04843,0,0,0-1.86133.43409,3.72647,3.72647,0,0,0-1.42871,1.30224,5.5914,5.5914,0,0,0-.79785,2.12793l-1.0918,7.084Z" transform="translate(-37.21875 -221.03711)" fill="#242021"/></svg>